<?xml version="1.0" encoding="UTF-8"?>
<svg version="1.1" xmlns="http://www.w3.org/2000/svg" width="1182" height="362">
<path d="M0 0 C1.55386486 1.06576322 3.10061201 2.14248546 4.625 3.25 C4.12723488 7.54703359 1.57815437 9.76424898 -1.3125 12.8125 C-3.91459147 15.57184016 -6.27014078 18.09271117 -8.375 21.25 C-11.58152053 20.61303881 -13.90750315 19.44861264 -16.6875 17.75 C-23.93056896 13.67503763 -31.32923927 13.57138805 -39.375 15.25 C-45.78473423 17.95054792 -49.97873734 22.41597974 -53.625 28.25 C-56.55736415 36.06963774 -56.59500102 45.81010094 -53.75 53.625 C-51.07137057 59.48038994 -47.74980738 62.89961933 -42.1875 66.0625 C-33.85947417 68.65647526 -25.94141128 68.36735799 -17.375 67.25 C-17.375 62.3 -17.375 57.35 -17.375 52.25 C-19.623125 52.270625 -21.87125 52.29125 -24.1875 52.3125 C-31 52.375 -31 52.375 -34.375 51.25 C-34.375 44.98 -34.375 38.71 -34.375 32.25 C-21.175 32.25 -7.975 32.25 5.625 32.25 C5.76272399 39.15660307 5.88217042 46.05844987 5.95458984 52.96533203 C5.98477339 55.31478002 6.02572541 57.66411524 6.07763672 60.01318359 C6.15037898 63.38928016 6.18444133 66.76388816 6.2109375 70.140625 C6.24190521 71.19179504 6.27287292 72.24296509 6.30477905 73.32598877 C6.30605812 76.09393853 6.24851916 78.55310855 5.625 81.25 C2.63580086 84.04766076 -0.25044936 85.54485663 -4.21484375 86.48046875 C-4.88580078 86.64353516 -5.55675781 86.80660156 -6.24804688 86.97460938 C-7.26995117 87.20374023 -7.26995117 87.20374023 -8.3125 87.4375 C-8.98990234 87.60185547 -9.66730469 87.76621094 -10.36523438 87.93554688 C-27.89439066 92.08674688 -46.15105594 91.46727121 -61.9140625 82 C-71.22030339 75.3822287 -78.76782866 65.95750277 -81.0703125 54.5390625 C-83.0959309 39.32095505 -82.86405453 25.58297237 -74.4296875 12.15234375 C-57.23870219 -10.24523031 -23.57627768 -14.7314384 0 0 Z " fill="#4BDD80" transform="translate(413.375,119.75)"/>
<path d="M0 0 C1.05513794 0.0002417 1.05513794 0.0002417 2.1315918 0.00048828 C9.4570059 0.16089265 14.240292 2.41019466 20.1875 6.375 C20.5175 4.725 20.8475 3.075 21.1875 1.375 C28.1175 1.375 35.0475 1.375 42.1875 1.375 C42.25543779 10.36369184 42.3104092 19.35221149 42.34293652 28.3411026 C42.35855268 32.51558518 42.37971633 36.68988207 42.41381836 40.86425781 C42.44655713 44.89727082 42.46438343 48.93010588 42.47213173 52.96324158 C42.47764931 54.49733783 42.48842355 56.03142501 42.50469017 57.56544495 C42.65524979 72.36034052 42.65524979 72.36034052 39.1875 79.375 C38.82269531 80.12910156 38.45789063 80.88320312 38.08203125 81.66015625 C33.20301625 89.67442277 27.14974645 94.77086889 18.171875 97.66015625 C12.85387563 98.93397023 7.64439465 99.30925428 2.1875 99.375 C0.73730469 99.39433594 0.73730469 99.39433594 -0.7421875 99.4140625 C-6.96935976 99.19467703 -12.43463141 97.729023 -18.25 95.625 C-18.92458252 95.38515381 -19.59916504 95.14530762 -20.29418945 94.89819336 C-25.1837332 93.0004755 -26.84633824 91.34116176 -30.8125 87.375 C-27.5125 82.425 -24.2125 77.475 -20.8125 72.375 C-16.67175557 73.20314889 -14.34574047 73.96319981 -10.75 75.875 C-5.09427632 78.87279498 -0.27489672 80.05143779 6.1875 79.375 C10.72240636 77.86336455 14.44597655 76.38184197 17.1875 72.375 C17.79869363 69.38118713 18.05716283 66.42488979 18.1875 63.375 C17.64480469 63.65214844 17.10210938 63.92929688 16.54296875 64.21484375 C15.46982422 64.75818359 15.46982422 64.75818359 14.375 65.3125 C13.31345703 65.85197266 13.31345703 65.85197266 12.23046875 66.40234375 C4.83341538 69.92407662 -4.05349157 69.29819395 -11.6875 66.75 C-21.68801493 62.54078472 -25.69526832 56.29504142 -29.8125 46.375 C-32.77232211 37.67491684 -31.61976713 26.05882425 -28.07421875 17.7734375 C-24.09757829 10.21412716 -19.08915874 4.51887852 -11.08203125 1.265625 C-7.34934529 0.24883599 -3.84170286 -0.00822928 0 0 Z M-5.8125 24.375 C-8.60387262 28.56205893 -8.85795554 32.397618 -8.8125 37.375 C-7.21810532 43.09606325 -4.7755598 46.12992244 0.1875 49.375 C4.37396231 50.59287995 6.62370568 50.54025006 10.8125 49.3125 C15.52226849 46.60874401 18.42965311 43.64854066 20.1875 38.375 C20.5559431 32.75624276 20.37940228 29.21788621 17.1875 24.375 C12.29522386 19.96001909 9.21021427 18.9727405 2.734375 19.01953125 C-1.39704822 19.59615627 -3.00273628 21.354504 -5.8125 24.375 Z " fill="#4CDD81" transform="translate(503.8125,139.625)"/>
<path d="M0 0 C7.92 0 15.84 0 24 0 C24 11.88 24 23.76 24 36 C26.475782 36 27.52142457 35.18824709 29.6875 34 C36.84769354 30.76114024 45.1136245 30.79796585 52.68359375 32.66015625 C61.36571381 36.13601367 67.2655213 42.13965558 71.03515625 50.60546875 C75.27834692 61.13614033 75.349148 71.56000285 71.31640625 82.2109375 C66.87836581 91.61378877 60.38399267 96.63002363 51.07421875 100.87890625 C43.85476752 103.33692069 34.9277466 101.6969134 28.09765625 98.74609375 C25.99201603 97.57851126 23.97799041 96.37098806 22 95 C21.67 96.65 21.34 98.3 21 100 C17.68751813 100.02888146 14.37506833 100.04675799 11.0625 100.0625 C10.11697266 100.07087891 9.17144531 100.07925781 8.19726562 100.08789062 C6.84858398 100.09272461 6.84858398 100.09272461 5.47265625 100.09765625 C4.64000244 100.10289307 3.80734863 100.10812988 2.94946289 100.11352539 C1 100 1 100 0 99 C-0.09532328 95.92545239 -0.1255138 92.87340842 -0.11352539 89.79858398 C-0.11367142 88.83283447 -0.11381744 87.86708496 -0.1139679 86.87207031 C-0.11326834 83.66338901 -0.10547397 80.45476497 -0.09765625 77.24609375 C-0.09579222 75.02791882 -0.09436825 72.80974348 -0.09336853 70.59156799 C-0.08954216 64.74059929 -0.07971086 58.88965523 -0.06866455 53.03869629 C-0.05845299 47.07332696 -0.05387146 41.10795367 -0.04882812 35.14257812 C-0.03808869 23.42837282 -0.02049093 11.71419231 0 0 Z M25.75 56.375 C22.67919415 60.98120878 21.42649449 64.21443567 22.328125 69.87109375 C23.87254692 74.76475621 27.09377698 78.71201147 31.3125 81.5625 C36.59166588 82.4218991 41.22956061 82.03917094 45.875 79.3125 C50.39941858 74.38886802 51.56877644 70.02466179 51.3515625 63.46875 C50.65196397 58.55601369 48.53466958 55.32152102 44.75 52.0625 C37.49044339 49.25767131 31.07428313 50.75492336 25.75 56.375 Z " fill="#4BDD80" transform="translate(638,108)"/>
<path d="M0 0 C5.80266782 2.54561481 9.71087938 7.22106576 12.7890625 12.64453125 C14.66588664 19.98120745 14.62747898 27.71097868 14.609375 35.2421875 C14.61033173 36.13570419 14.61128845 37.02922089 14.61227417 37.94981384 C14.61294866 39.81607128 14.61114599 41.68233118 14.60693359 43.54858398 C14.60151725 46.41850932 14.60693241 49.28828221 14.61328125 52.15820312 C14.61262146 53.97786493 14.61134235 55.79752664 14.609375 57.6171875 C14.61139923 58.47748062 14.61342346 59.33777374 14.61550903 60.22413635 C14.59155134 66.21704241 14.59155134 66.21704241 13.4765625 67.33203125 C11.84183368 67.41903467 10.20342195 67.43904188 8.56640625 67.4296875 C7.57705078 67.42646484 6.58769531 67.42324219 5.56835938 67.41992188 C4.52744141 67.41154297 3.48652344 67.40316406 2.4140625 67.39453125 C1.36927734 67.39001953 0.32449219 67.38550781 -0.75195312 67.38085938 C-3.3425041 67.36903038 -5.93294309 67.35254814 -8.5234375 67.33203125 C-10.07363827 64.23162971 -9.58171412 60.97454388 -9.515625 57.578125 C-9.49808812 55.98503264 -9.48118185 54.39193323 -9.46484375 52.79882812 C-9.43406158 50.29301299 -9.39877358 47.78755372 -9.35205078 45.28198242 C-9.02376664 32.50624574 -9.02376664 32.50624574 -12.5234375 20.33203125 C-15.93332679 19.66342551 -18.82546235 19.22098975 -22.2734375 19.76953125 C-25.66046345 22.1216326 -26.48056507 25.4942689 -27.5234375 29.33203125 C-27.9379403 32.36807017 -28.01038964 35.36416753 -28.03515625 38.42578125 C-28.05310745 39.25791138 -28.07105865 40.0900415 -28.08955383 40.9473877 C-28.14324377 43.57555239 -28.17741821 46.2035399 -28.2109375 48.83203125 C-28.24414719 50.62632653 -28.27864017 52.42059854 -28.31445312 54.21484375 C-28.39894574 58.58711081 -28.46595209 62.95932911 -28.5234375 67.33203125 C-32.16925437 67.36090637 -35.81504213 67.3787871 -39.4609375 67.39453125 C-41.02231445 67.40709961 -41.02231445 67.40709961 -42.61523438 67.41992188 C-43.60458984 67.42314453 -44.59394531 67.42636719 -45.61328125 67.4296875 C-46.98794556 67.43754272 -46.98794556 67.43754272 -48.39038086 67.44555664 C-50.5234375 67.33203125 -50.5234375 67.33203125 -51.5234375 66.33203125 C-51.62278898 64.31252916 -51.65143258 62.2895221 -51.65283203 60.26757812 C-51.65598419 58.96953247 -51.65913635 57.67148682 -51.66238403 56.33410645 C-51.66059425 54.90633104 -51.6585433 53.47855594 -51.65625 52.05078125 C-51.65692308 50.59728987 -51.65789314 49.14379861 -51.65914917 47.69030762 C-51.66062596 44.64036998 -51.6584722 41.59046159 -51.65380859 38.54052734 C-51.6481113 34.62272566 -51.65139041 30.70499247 -51.65738106 26.7871933 C-51.66098719 23.78472371 -51.65984785 20.78227048 -51.65725327 17.77980042 C-51.65658414 16.33484387 -51.65741192 14.88988586 -51.65973282 13.44493103 C-51.66226015 11.42878242 -51.65772802 9.41262863 -51.65283203 7.39648438 C-51.65203644 6.24700317 -51.65124084 5.09752197 -51.65042114 3.91320801 C-51.5234375 1.33203125 -51.5234375 1.33203125 -50.5234375 0.33203125 C-48.96171005 0.24517522 -47.39614406 0.22500906 -45.83203125 0.234375 C-44.88779297 0.23759766 -43.94355469 0.24082031 -42.97070312 0.24414062 C-41.48086914 0.25670898 -41.48086914 0.25670898 -39.9609375 0.26953125 C-38.96384766 0.27404297 -37.96675781 0.27855469 -36.93945312 0.28320312 C-34.46738901 0.29503118 -31.99544232 0.31151276 -29.5234375 0.33203125 C-29.1934375 1.98203125 -28.8634375 3.63203125 -28.5234375 5.33203125 C-27.90339844 4.89890625 -27.28335938 4.46578125 -26.64453125 4.01953125 C-18.18501424 -1.29999037 -9.76367352 -2.58450182 0 0 Z " fill="#4BDD80" transform="translate(942.5234375,140.66796875)"/>
<path d="M0 0 C8.54827818 9.20583804 10.14654947 19.39871152 10.0390625 31.66796875 C10.03860428 32.5392894 10.03814606 33.41061005 10.03767395 34.30833435 C10.03468053 36.12752669 10.02688311 37.94671714 10.0144043 39.76586914 C9.99593303 42.56340472 9.99389649 45.3606124 9.99414062 48.15820312 C9.98923234 49.93229455 9.98340705 51.70638374 9.9765625 53.48046875 C9.97544968 54.31888809 9.97433685 55.15730743 9.97319031 56.02113342 C9.92471273 61.86044352 9.92471273 61.86044352 8.80859375 62.9765625 C7.31987515 63.06325682 5.82714875 63.08359744 4.3359375 63.07421875 C3.43681641 63.07099609 2.53769531 63.06777344 1.61132812 63.06445312 C0.19303711 63.05188477 0.19303711 63.05188477 -1.25390625 63.0390625 C-2.20330078 63.03455078 -3.15269531 63.03003906 -4.13085938 63.02539062 C-6.4844369 63.0135636 -8.83789102 62.99708275 -11.19140625 62.9765625 C-11.85140625 61.6565625 -12.51140625 60.3365625 -13.19140625 58.9765625 C-14.26390625 59.6159375 -15.33640625 60.2553125 -16.44140625 60.9140625 C-22.94753889 64.7927185 -30.31373418 64.88582838 -37.6640625 63.515625 C-43.7698219 61.73521488 -49.06422853 58.70101602 -52.2890625 53.0546875 C-54.6903582 47.29157781 -54.95975895 41.90697787 -53.12890625 35.9140625 C-50.77286514 30.30082169 -46.93191684 27.18982956 -41.4296875 24.75390625 C-34.51004729 22.17636337 -28.31551123 20.81143035 -20.94140625 20.4140625 C-20.19632813 20.37087891 -19.45125 20.32769531 -18.68359375 20.28320312 C-16.85305725 20.17759525 -15.02225449 20.07662049 -13.19140625 19.9765625 C-14.39301679 16.40518355 -14.39301679 16.40518355 -16.81640625 13.6640625 C-23.61779428 11.69523965 -28.94459213 13.17626652 -35.19140625 15.9765625 C-35.85140625 16.6365625 -36.51140625 17.2965625 -37.19140625 17.9765625 C-41.44599291 17.83782598 -43.64737039 14.81838925 -46.44140625 11.9140625 C-47.3334375 10.99496094 -48.22546875 10.07585937 -49.14453125 9.12890625 C-49.82 8.41863281 -50.49546875 7.70835937 -51.19140625 6.9765625 C-49.51778333 1.95569373 -44.7225884 0.31917084 -40.19140625 -2.0234375 C-28.49769818 -7.02681095 -10.08924646 -9.31591741 0 0 Z M-31.19140625 37.9765625 C-32.52048792 40.86729203 -32.52048792 40.86729203 -32.19140625 43.9765625 C-30.88279168 46.53641324 -30.88279168 46.53641324 -28.19140625 47.9765625 C-23.26973824 48.61161644 -21.20312425 48.51989254 -16.81640625 46.1640625 C-14.04566302 44.06571001 -14.04566302 44.06571001 -12.19140625 40.9765625 C-12.02441393 37.85134417 -12.02441393 37.85134417 -12.19140625 34.9765625 C-22.29709804 34.13312241 -22.29709804 34.13312241 -31.19140625 37.9765625 Z " fill="#4BDD80" transform="translate(826.19140625,145.0234375)"/>
<path d="M0 0 C9.67586704 12.71685383 8.42048845 29.57958909 7.8125 44.6875 C7.75409486 46.36259176 7.69679596 48.03772246 7.640625 49.71289062 C7.50230261 53.76748805 7.34912546 57.82126738 7.1875 61.875 C4.08351022 61.96210289 0.97983452 62.01542309 -2.125 62.0625 C-3.00607422 62.08763672 -3.88714844 62.11277344 -4.79492188 62.13867188 C-5.64248047 62.14833984 -6.49003906 62.15800781 -7.36328125 62.16796875 C-8.14356689 62.1836792 -8.92385254 62.19938965 -9.7277832 62.21557617 C-12.31153853 61.79347304 -13.17542167 60.86010058 -14.8125 58.875 C-15.51375 59.16375 -16.215 59.4525 -16.9375 59.75 C-17.88625 60.12125 -18.835 60.4925 -19.8125 60.875 C-20.658125 61.24625 -21.50375 61.6175 -22.375 62 C-31.26732669 64.26350134 -39.82905878 63.4775533 -47.8125 58.875 C-52.20685716 55.62937521 -54.76302741 52.33225749 -55.8125 46.875 C-56.35240359 40.86734546 -56.4000386 35.96699027 -52.8125 30.875 C-46.73101306 24.15157832 -38.69291616 20.98641405 -29.8125 19.875 C-27.17660042 19.80843688 -24.57101404 19.77932589 -21.9375 19.8125 C-21.24914062 19.81701172 -20.56078125 19.82152344 -19.8515625 19.82617188 C-18.17183665 19.83783664 -16.49215625 19.85576729 -14.8125 19.875 C-15.80471199 15.605089 -15.80471199 15.605089 -18.6796875 12.52734375 C-23.47509541 11.06061642 -27.83961856 11.01998842 -32.48046875 13.03125 C-34.19195688 13.94134709 -35.88435386 14.88871027 -37.55078125 15.87890625 C-39.8125 16.875 -39.8125 16.875 -41.80859375 16.84375 C-44.76153038 15.41620948 -46.43429842 13.28496949 -48.5625 10.8125 C-49.36171875 9.89339844 -50.1609375 8.97429687 -50.984375 8.02734375 C-51.58765625 7.31707031 -52.1909375 6.60679687 -52.8125 5.875 C-51.14204187 0.86362561 -46.31152979 -0.74162428 -41.8125 -3.125 C-28.54344868 -9.38760831 -11.85644753 -8.9582048 0 0 Z M-32.8125 36.875 C-35.03524553 39.55313631 -35.03524553 39.55313631 -34.6875 41.875 C-33.47772216 44.64020649 -32.51535607 45.48891997 -29.8125 46.875 C-25.06625958 47.41086585 -22.777039 47.32154583 -18.4375 45.3125 C-15.22581878 42.33022458 -14.5260302 40.15618123 -13.8125 35.875 C-14.1425 35.215 -14.4725 34.555 -14.8125 33.875 C-24.29387994 33.25079528 -24.29387994 33.25079528 -32.8125 36.875 Z " fill="#4ADD80" transform="translate(614.8125,146.125)"/>
<path d="M0 0 C0.11044961 6.73742646 -0.29867087 13.29980211 -1 20 C-1.72445312 20.02578125 -2.44890625 20.0515625 -3.1953125 20.078125 C-9.15830871 20.42795411 -13.43661913 20.77887269 -18 25 C-21.10126583 29.96817845 -21.46511775 34.00317837 -21.51171875 39.6796875 C-21.52966995 40.49245148 -21.54762115 41.30521545 -21.56611633 42.14260864 C-21.61998358 44.7200208 -21.65403836 47.2972503 -21.6875 49.875 C-21.72069399 51.63023362 -21.75518557 53.38544321 -21.79101562 55.140625 C-21.87569611 59.42695103 -21.94261897 63.71322512 -22 68 C-25.64581687 68.02887512 -29.29160463 68.04675585 -32.9375 68.0625 C-34.49887695 68.07506836 -34.49887695 68.07506836 -36.09179688 68.08789062 C-37.08115234 68.09111328 -38.07050781 68.09433594 -39.08984375 68.09765625 C-40.46450806 68.10551147 -40.46450806 68.10551147 -41.86694336 68.11352539 C-44 68 -44 68 -45 67 C-45.09935148 64.98049791 -45.12799508 62.95749085 -45.12939453 60.93554688 C-45.13254669 59.63750122 -45.13569885 58.33945557 -45.13894653 57.0020752 C-45.13715675 55.57429979 -45.1351058 54.14652469 -45.1328125 52.71875 C-45.13348558 51.26525862 -45.13445564 49.81176736 -45.13571167 48.35827637 C-45.13718846 45.30833873 -45.1350347 42.25843034 -45.13037109 39.20849609 C-45.1246738 35.29069441 -45.12795291 31.37296122 -45.13394356 27.45516205 C-45.13754969 24.45269246 -45.13641035 21.45023923 -45.13381577 18.44776917 C-45.13314664 17.00281262 -45.13397442 15.55785461 -45.13629532 14.11289978 C-45.13882265 12.09675117 -45.13429052 10.08059738 -45.12939453 8.06445312 C-45.12859894 6.91497192 -45.12780334 5.76549072 -45.12698364 4.58117676 C-45 2 -45 2 -44 1 C-42.43827255 0.91314397 -40.87270656 0.89297781 -39.30859375 0.90234375 C-38.36435547 0.90556641 -37.42011719 0.90878906 -36.44726562 0.91210938 C-34.95743164 0.92467773 -34.95743164 0.92467773 -33.4375 0.9375 C-32.44041016 0.94201172 -31.44332031 0.94652344 -30.41601562 0.95117188 C-27.94395151 0.96299993 -25.47200482 0.97948151 -23 1 C-22.67 2.65 -22.34 4.3 -22 6 C-21.41734375 5.566875 -20.8346875 5.13375 -20.234375 4.6875 C-13.36511272 0.021586 -8.20549896 -0.76133496 0 0 Z " fill="#4CDD81" transform="translate(770,140)"/>
<path d="M0 0 C3.39751775 0.94375493 4.8696887 1.84223081 7.14250183 4.59394836 C9.27785798 8.50950179 9.54802845 11.53253317 9.4699707 15.87182617 C9.4721611 16.63887878 9.4743515 17.4059314 9.47660828 18.19622803 C9.47891533 20.72891696 9.45263658 23.26043449 9.42578125 25.79296875 C9.42084538 27.58058811 9.41755431 29.36821268 9.41581726 31.15583801 C9.40622049 35.87538675 9.37181371 40.59445734 9.33294678 45.31384277 C9.3061066 49.08604881 9.29723944 52.85819023 9.28920174 56.630476 C9.26622537 67.29987285 9.17887258 77.96739863 9.03174591 88.63579559 C9.00137864 90.89732875 8.97542801 93.15887652 8.95013428 95.42047119 C8.90424838 99.23548354 8.82183121 103.04906768 8.73046875 106.86328125 C8.71117058 108.48534737 8.71117058 108.48534737 8.69148254 110.1401825 C8.55258494 114.57208839 8.4193084 117.28671846 6.1418457 121.16088867 C4 123 4 123 1 123.5625 C-2.687148 122.87115975 -3.67334577 121.89407964 -6 119 C-6.60470581 116.37384033 -6.60470581 116.37384033 -6.74169922 113.44238281 C-6.82457184 111.8450531 -6.82457184 111.8450531 -6.90911865 110.2154541 C-6.9391095 109.15435425 -6.96910034 108.09325439 -7 107 C-7.02660706 106.08101929 -7.05321411 105.16203857 -7.08062744 104.21520996 C-7.13092703 101.44992855 -7.13854457 98.68759 -7.1328125 95.921875 C-7.13435837 94.89153137 -7.13590424 93.86118774 -7.13749695 92.79962158 C-7.13995235 89.44970528 -7.13373365 86.09990497 -7.125 82.75 C-7.12245209 81.60080078 -7.11990417 80.45160156 -7.11727905 79.26757812 C-7.09864109 72.05076127 -7.06300668 64.83413823 -7.01959229 57.61743164 C-7.00026533 54.04898938 -6.98835695 50.48058787 -6.97802734 46.91210938 C-6.95920092 41.32742707 -6.91289442 35.74360177 -6.84539795 30.15930176 C-6.82355824 28.06196011 -6.81001871 25.96451476 -6.80499268 23.86706543 C-6.79582797 20.95222112 -6.75548089 18.03941957 -6.70703125 15.125 C-6.71095383 14.26908264 -6.7148764 13.41316528 -6.71891785 12.53131104 C-6.60973718 8.12969782 -6.42202172 6.51149115 -3.51831055 2.9921875 C-2.68726807 2.33476563 -1.85622559 1.67734375 -1 1 C-0.67 0.67 -0.34 0.34 0 0 Z " fill="#4ADD81" transform="translate(201,115)"/>
<path d="M0 0 C0.91644287 0.00523682 1.83288574 0.01047363 2.77709961 0.01586914 C3.76645508 0.0190918 4.75581055 0.02231445 5.77514648 0.02563477 C6.81606445 0.03401367 7.85698242 0.04239258 8.92944336 0.05102539 C10.49662109 0.05779297 10.49662109 0.05779297 12.09545898 0.06469727 C14.68600996 0.07652627 17.27644895 0.0930085 19.86694336 0.11352539 C20.02064874 8.55383469 20.16883029 16.99421495 20.30990696 25.43474388 C20.37558504 29.35376683 20.44318517 33.2727372 20.51513672 37.19165039 C20.58446831 40.9716802 20.64880487 44.75176468 20.7096386 48.53194046 C20.73376501 49.97610195 20.7597092 51.42023423 20.78747749 52.86433029 C20.82598158 54.88269404 20.85749741 56.90118748 20.88867188 58.91967773 C20.90865738 60.06995453 20.92864288 61.22023132 20.94923401 62.40536499 C20.86694336 65.11352539 20.86694336 65.11352539 19.86694336 67.11352539 C16.22112649 67.14240051 12.57533873 67.16028124 8.92944336 67.17602539 C7.36806641 67.18859375 7.36806641 67.18859375 5.77514648 67.20141602 C4.78579102 67.20463867 3.79643555 67.20786133 2.77709961 67.21118164 C1.4024353 67.21903687 1.4024353 67.21903687 0 67.22705078 C-2.13305664 67.11352539 -2.13305664 67.11352539 -3.13305664 66.11352539 C-3.23240812 64.0940233 -3.26105172 62.07101624 -3.26245117 60.04907227 C-3.26560333 58.75102661 -3.26875549 57.45298096 -3.27200317 56.11560059 C-3.27021339 54.68782518 -3.26816244 53.26005008 -3.26586914 51.83227539 C-3.26654222 50.37878401 -3.26751228 48.92529275 -3.26876831 47.47180176 C-3.2702451 44.42186412 -3.26809134 41.37195573 -3.26342773 38.32202148 C-3.25773045 34.4042198 -3.26100955 30.48648661 -3.2670002 26.56868744 C-3.27060633 23.56621785 -3.26946699 20.56376462 -3.26687241 17.56129456 C-3.26620328 16.11633801 -3.26703106 14.67138 -3.26935196 13.22642517 C-3.27187929 11.21027656 -3.26734716 9.19412277 -3.26245117 7.17797852 C-3.26165558 6.02849731 -3.26085999 4.87901611 -3.26004028 3.69470215 C-3.08635665 0.16426186 -3.08635665 0.16426186 0 0 Z " fill="#50DB82" transform="translate(439.133056640625,140.886474609375)"/>
<path d="M0 0 C7.26 0 14.52 0 22 0 C22 22.11 22 44.22 22 67 C15.07 67 8.14 67 1 67 C-2.07021993 63.92978007 -0.98572575 54.96818429 -1.04666138 50.83508301 C-1.02077984 47.56064079 -0.95797853 44.28920842 -0.87890625 41.015625 C-0.85529526 39.83401794 -0.83168427 38.65241089 -0.80735779 37.43499756 C-0.73153763 33.70651717 -0.64716805 29.97828888 -0.5625 26.25 C-0.50919733 23.70313683 -0.45645769 21.15626181 -0.40429688 18.609375 C-0.27603471 12.40609411 -0.14011133 6.20302411 0 0 Z " fill="#4BDE80" transform="translate(852,141)"/>
<path d="M0 0 C3.3954233 3.43997046 3.38378007 6.27936051 3.40405273 11 C3.41091599 11.69641602 3.41777924 12.39283203 3.42485046 13.11035156 C3.44311783 15.40710975 3.43928178 17.70318492 3.43359375 20 C3.43815523 21.59896059 3.44346071 23.19791922 3.44947815 24.796875 C3.45840881 28.14591443 3.45598632 31.49471538 3.44604492 34.84375 C3.43454826 39.13475013 3.45477687 43.42492819 3.48396206 47.71582031 C3.5023097 51.01698022 3.50203465 54.31794253 3.49632454 57.61914062 C3.49617118 59.20118362 3.50222734 60.78323988 3.51461601 62.36523438 C3.52950009 64.5773476 3.51887079 66.78793446 3.50170898 69 C3.50154282 70.258125 3.50137665 71.51625 3.50120544 72.8125 C3 76 3 76 1.19129944 78.41015625 C-1.97180177 80.70506702 -4.19363824 80.48444604 -8 80 C-10.61593153 78.16884793 -10.96989455 77.09031634 -12 74 C-12.1046927 71.80343254 -12.14866228 69.60381077 -12.16113281 67.40478516 C-12.16609772 66.73938217 -12.17106262 66.07397919 -12.17617798 65.38841248 C-12.19077477 63.1886186 -12.19759727 60.98889683 -12.203125 58.7890625 C-12.20887831 57.25833128 -12.21463602 55.72760008 -12.22039795 54.1968689 C-12.23090074 50.98736231 -12.23674819 47.77788072 -12.24023438 44.56835938 C-12.24571894 40.46031743 -12.26974894 36.35260696 -12.29820633 32.24466896 C-12.31685016 29.08247926 -12.32203922 25.92036914 -12.32357025 22.75812912 C-12.32659316 21.24389203 -12.33460953 19.72965622 -12.34775543 18.21547318 C-12.36485381 16.09472834 -12.36292704 13.97479013 -12.35644531 11.85400391 C-12.36009094 10.64837799 -12.36373657 9.44275208 -12.36749268 8.20059204 C-11.96399282 4.68640385 -11.08482123 2.82541106 -9 0 C-5.59609535 -2.60966024 -3.63369791 -2.04977831 0 0 Z " fill="#49DE7F" transform="translate(247,158)"/>
<path d="M0 0 C3.22121823 1.77167003 3.96931805 3.02100975 5.5 6.375 C5.92167561 9.47223739 5.89689445 12.53450448 5.86328125 15.65625 C5.86377975 16.54735474 5.86427826 17.43845947 5.86479187 18.35656738 C5.86245695 20.23594397 5.8527628 22.11532401 5.83618164 23.99462891 C5.81258062 26.86519444 5.81562632 29.73483074 5.82226562 32.60546875 C5.81668858 34.43490135 5.80957853 36.26433005 5.80078125 38.09375 C5.80214836 39.37674988 5.80214836 39.37674988 5.80354309 40.68566895 C5.73930054 46.10661334 5.51873643 50.35626357 1.5 54.375 C-1.875 54.8125 -1.875 54.8125 -5.5 54.375 C-7.9520203 52.24394763 -9.30274009 50.50206963 -9.87084961 47.25610352 C-10.030138 44.64149454 -10.05427936 42.05688902 -10.03125 39.4375 C-10.03699036 38.00096069 -10.03699036 38.00096069 -10.04284668 36.53540039 C-10.0455632 34.51480048 -10.03822023 32.49416524 -10.02148438 30.47363281 C-10.00007119 27.38526825 -10.02129501 24.29922993 -10.046875 21.2109375 C-10.04423168 19.24478655 -10.03910661 17.27863703 -10.03125 15.3125 C-10.03934692 14.39154541 -10.04744385 13.47059082 -10.05578613 12.52172852 C-9.99462567 8.32881702 -9.85956379 5.97084856 -7.65429688 2.31640625 C-4.97646601 -0.09679763 -3.55612739 -0.88903185 0 0 Z " fill="#48DE7F" transform="translate(163.5,183.625)"/>
<path d="M0 0 C0.66 0.33 1.32 0.66 2 1 C4.92523605 11.32455761 4.05088088 22.22978172 3.625 32.8125 C3.56659486 34.48759176 3.50929596 36.16272246 3.453125 37.83789062 C3.31480261 41.89248805 3.16162546 45.94626738 3 50 C-0.10398978 50.08710289 -3.20766548 50.14042309 -6.3125 50.1875 C-7.19357422 50.21263672 -8.07464844 50.23777344 -8.98242188 50.26367188 C-10.25375977 50.27817383 -10.25375977 50.27817383 -11.55078125 50.29296875 C-12.33106689 50.3086792 -13.11135254 50.32438965 -13.9152832 50.34057617 C-16.49903853 49.91847304 -17.36292167 48.98510058 -19 47 C-20.051875 47.433125 -20.051875 47.433125 -21.125 47.875 C-22.07375 48.24625 -23.0225 48.6175 -24 49 C-24.845625 49.37125 -25.69125 49.7425 -26.5625 50.125 C-35.45482669 52.38850134 -44.01655878 51.6025533 -52 47 C-56.39435716 43.75437521 -58.95052741 40.45725749 -60 35 C-60.54392226 28.94762868 -60.48272272 24.22408408 -57 19 C-56.34 18.67 -55.68 18.34 -55 18 C-55.33 18.94875 -55.66 19.8975 -56 20.875 C-57.3644458 25.55447256 -57.17499341 30.16823759 -57 35 C-56.01 34.505 -56.01 34.505 -55 34 C-55 34.99 -55 35.98 -55 37 C-53.515 36.505 -53.515 36.505 -52 36 C-48.35540725 38.60328053 -45.59241408 40.70048197 -44 45 C-43.67 43.35 -43.34 41.7 -43 40 C-43.66 40 -44.32 40 -45 40 C-45 38.35 -45 36.7 -45 35 C-43.515 34.505 -43.515 34.505 -42 34 C-42.0825 32.906875 -42.165 31.81375 -42.25 30.6875 C-42 27 -42 27 -40 25.0625 C-39.34 24.711875 -38.68 24.36125 -38 24 C-37.34 24.33 -36.68 24.66 -36 25 C-36.66 25.99 -37.32 26.98 -38 28 C-37.91428339 30.09291157 -37.91428339 30.09291157 -37 32 C-33.28475712 34.47682859 -30.30361706 34.43538538 -26 34 C-23.11785113 33.11785113 -23.11785113 33.11785113 -21 32 C-21 32.66 -21 33.32 -21 34 C-21.66 34 -22.32 34 -23 34 C-23.66 35.65 -24.32 37.3 -25 39 C-26.65 39 -28.3 39 -30 39 C-29.34 39.66 -28.68 40.32 -28 41 C-27 42 -26 43 -25 44 C-23.35 43.01 -21.7 42.02 -20 41 C-19.01 41.66 -18.02 42.32 -17 43 C-17 43.66 -17 44.32 -17 45 C-16.67 44.67 -16.34 44.34 -16 44 C-15.34 43.67 -14.68 43.34 -14 43 C-14 42.34 -14 41.68 -14 41 C-13.34 40.67 -12.68 40.34 -12 40 C-11.27840576 38.35636866 -10.60648579 36.68949614 -10 35 C-9.67 35 -9.34 35 -9 35 C-8.505 40.94 -8.505 40.94 -8 47 C-4.7 47.33 -1.4 47.66 2 48 C1.90630513 42.25223889 1.80017497 36.50489103 1.68261719 30.75756836 C1.64438211 28.80320491 1.60951973 26.84877241 1.578125 24.89428711 C1.53235565 22.08161778 1.47438077 19.26942161 1.4140625 16.45703125 C1.40251129 15.58601273 1.39096008 14.7149942 1.37905884 13.81758118 C1.27144242 9.37380866 0.84195096 6.10961259 -1 2 C-0.67 1.34 -0.34 0.68 0 0 Z " fill="#4FDD82" transform="translate(619,158)"/>
<path d="M0 0 C3.29110633 2.10070617 4.8333853 3.75007795 7 7 C7.4673854 11.75175157 7.4911613 14.03586856 5.3125 18.3125 C1.73770791 22.4669881 -0.43776011 23.82641779 -5.9375 24.4375 C-10.2150513 24.25994127 -12.73416458 22.81013746 -16 20 C-18.03457402 17.19369101 -19.79425168 14.49772143 -20 11 C-18.3459077 5.85393507 -16.54374803 2.95343622 -12 0 C-7.82351292 -1.39216236 -4.262715 -0.98139836 0 0 Z " fill="#4DDD81" transform="translate(869,110)"/>
<path d="M0 0 C3.17718423 1.58859211 4.47622138 2.74632618 5.84375 6.01953125 C7.0205796 10.13142991 7.1000875 12.6184164 6 16.8125 C3.65732721 20.54613476 1.98731875 22.11918927 -2 24 C-8.38457059 24.81073912 -11.79561529 23.74715699 -17 20 C-19.57894666 15.85464614 -19.93360064 11.74779814 -19 7 C-14.26772586 -1.04635886 -8.70965765 -1.73914889 0 0 Z " fill="#4FDC84" transform="translate(454,110)"/>
<path d="M0 0 C4.16413559 0.83282712 6.65536612 1.66079038 10.3125 3.5625 C11.19550781 4.01753906 12.07851563 4.47257813 12.98828125 4.94140625 C13.98408203 5.46541016 13.98408203 5.46541016 15 6 C12.34501768 7.0169313 11.30844625 7.13022151 8.640625 6.00390625 C7.85171875 5.52824219 7.0628125 5.05257812 6.25 4.5625 C5.45078125 4.08941406 4.6515625 3.61632812 3.828125 3.12890625 C3.22484375 2.75636719 2.6215625 2.38382813 2 2 C2.17402344 2.76699219 2.34804688 3.53398437 2.52734375 4.32421875 C3.03783279 7.21417737 2.7248496 9.18114044 2 12 C-0.64 12.33 -3.28 12.66 -6 13 C-6 13.66 -6 14.32 -6 15 C-4.02 14.67 -2.04 14.34 0 14 C-0.66 15.65 -1.32 17.3 -2 19 C0.97 18.67 3.94 18.34 7 18 C7 17.34 7 16.68 7 16 C6.01 15.67 5.02 15.34 4 15 C4 14.01 4 13.02 4 12 C5.98 11.67 7.96 11.34 10 11 C10.33 12.65 10.66 14.3 11 16 C11.99 16.33 12.98 16.66 14 17 C14 17.99 14 18.98 14 20 C13.34 20.33 12.68 20.66 12 21 C13.59085697 22.89249022 14.49576346 23.90019468 16.96118164 24.38818359 C17.68684326 24.39156738 18.41250488 24.39495117 19.16015625 24.3984375 C20.3502832 24.40423828 20.3502832 24.40423828 21.56445312 24.41015625 C22.38880859 24.39855469 23.21316406 24.38695312 24.0625 24.375 C24.89072266 24.38660156 25.71894531 24.39820313 26.57226562 24.41015625 C27.36439453 24.40628906 28.15652344 24.40242188 28.97265625 24.3984375 C29.69718994 24.39505371 30.42172363 24.39166992 31.16821289 24.38818359 C33.41476054 24.13508574 33.41476054 24.13508574 35 21 C35.99 21 36.98 21 38 21 C38 21.66 38 22.32 38 23 C39.65 22.67 41.3 22.34 43 22 C42 24 42 24 39.3203125 25.08203125 C27.09520694 28.46191338 14.3678546 27.52122327 2.5625 23.25 C1.88791748 23.01015381 1.21333496 22.77030762 0.51831055 22.52319336 C-4.3712332 20.6254755 -6.03383824 18.96616176 -10 15 C-5.05 7.575 -5.05 7.575 0 0 Z " fill="#4DDD81" transform="translate(483,212)"/>
<path d="M0 0 C0.87454834 0.00523682 1.74909668 0.01047363 2.65014648 0.01586914 C3.59438477 0.0190918 4.53862305 0.02231445 5.51147461 0.02563477 C6.50469727 0.03401367 7.49791992 0.04239258 8.52124023 0.05102539 C9.51833008 0.05553711 10.51541992 0.06004883 11.54272461 0.06469727 C14.01478872 0.07652532 16.48673541 0.0930069 18.95874023 0.11352539 C19.28874023 1.76352539 19.61874023 3.41352539 19.95874023 5.11352539 C20.51303711 4.75258789 21.06733398 4.39165039 21.63842773 4.01977539 C22.36288086 3.55571289 23.08733398 3.09165039 23.83374023 2.61352539 C24.55303711 2.14946289 25.27233398 1.68540039 26.01342773 1.20727539 C27.95874023 0.11352539 27.95874023 0.11352539 29.95874023 0.11352539 C29.95874023 0.77352539 29.95874023 1.43352539 29.95874023 2.11352539 C29.36061523 2.34040039 28.76249023 2.56727539 28.14624023 2.80102539 C25.3978825 4.45004003 24.56662148 6.38711807 22.95874023 9.11352539 C21.96874023 9.44352539 20.97874023 9.77352539 19.95874023 10.11352539 C19.95874023 9.45352539 19.95874023 8.79352539 19.95874023 8.11352539 C18.96874023 7.78352539 17.97874023 7.45352539 16.95874023 7.11352539 C16.95874023 5.46352539 16.95874023 3.81352539 16.95874023 2.11352539 C8.54374023 2.60852539 8.54374023 2.60852539 -0.04125977 3.11352539 C-0.37125977 23.57352539 -0.70125977 44.03352539 -1.04125977 65.11352539 C4.89874023 65.11352539 10.83874023 65.11352539 16.95874023 65.11352539 C17.61874023 65.44352539 18.27874023 65.77352539 18.95874023 66.11352539 C18.95874023 54.23352539 18.95874023 42.35352539 18.95874023 30.11352539 C19.28874023 30.11352539 19.61874023 30.11352539 19.95874023 30.11352539 C19.95874023 42.32352539 19.95874023 54.53352539 19.95874023 67.11352539 C14.54467773 67.14446289 14.54467773 67.14446289 9.02124023 67.17602539 C7.88178955 67.18512939 6.74233887 67.1942334 5.56835938 67.20361328 C4.67753662 67.20611084 3.78671387 67.2086084 2.86889648 67.21118164 C1.49423218 67.21903687 1.49423218 67.21903687 0.09179688 67.22705078 C-2.04125977 67.11352539 -2.04125977 67.11352539 -3.04125977 66.11352539 C-3.14061125 64.0940233 -3.16925484 62.07101624 -3.1706543 60.04907227 C-3.17380646 58.75102661 -3.17695862 57.45298096 -3.1802063 56.11560059 C-3.17841652 54.68782518 -3.17636557 53.26005008 -3.17407227 51.83227539 C-3.17474534 50.37878401 -3.1757154 48.92529275 -3.17697144 47.47180176 C-3.17844823 44.42186412 -3.17629447 41.37195573 -3.17163086 38.32202148 C-3.16593357 34.4042198 -3.16921268 30.48648661 -3.17520332 26.56868744 C-3.17880945 23.56621785 -3.17767011 20.56376462 -3.17507553 17.56129456 C-3.1744064 16.11633801 -3.17523419 14.67138 -3.17755508 13.22642517 C-3.18008242 11.21027656 -3.17555028 9.19412277 -3.1706543 7.17797852 C-3.1698587 6.02849731 -3.16906311 4.87901611 -3.16824341 3.69470215 C-2.99467233 0.16654977 -2.99467233 0.16654977 0 0 Z " fill="#67D48F" transform="translate(728.041259765625,140.886474609375)"/>
<path d="M0 0 C1.03930664 0.01353516 1.03930664 0.01353516 2.09960938 0.02734375 C3.79572395 0.05073843 5.49165871 0.08660359 7.1875 0.125 C5.85416667 1.45833333 4.52083333 2.79166667 3.1875 4.125 C4.1775 4.455 5.1675 4.785 6.1875 5.125 C5.878125 5.7025 5.56875 6.28 5.25 6.875 C4.26166636 8.96794184 3.6706387 10.87035275 3.1875 13.125 C0.8775 12.795 -1.4325 12.465 -3.8125 12.125 C-4.1425 13.115 -4.4725 14.105 -4.8125 15.125 C-9.1968721 17.62898494 -13.4697447 18.55633259 -18.375 17.3125 C-19.509375 16.920625 -20.64375 16.52875 -21.8125 16.125 C-21.8125 15.135 -21.8125 14.145 -21.8125 13.125 C-20.8225 12.795 -19.8325 12.465 -18.8125 12.125 C-16.8674 9.20735 -16.35973683 7.49962715 -15.8125 4.125 C-14.8225 4.125 -13.8325 4.125 -12.8125 4.125 C-12.8125 3.465 -12.8125 2.805 -12.8125 2.125 C-8.53365394 0.0146565 -4.67385858 -0.11628739 0 0 Z " fill="#48DE7F" transform="translate(589.8125,140.875)"/>
<path d="M0 0 C0.87454834 0.00523682 1.74909668 0.01047363 2.65014648 0.01586914 C3.59438477 0.0190918 4.53862305 0.02231445 5.51147461 0.02563477 C6.50469727 0.03401367 7.49791992 0.04239258 8.52124023 0.05102539 C9.51833008 0.05553711 10.51541992 0.06004883 11.54272461 0.06469727 C14.01478872 0.07652532 16.48673541 0.0930069 18.95874023 0.11352539 C19.28874023 1.76352539 19.61874023 3.41352539 19.95874023 5.11352539 C18.96874023 5.11352539 17.97874023 5.11352539 16.95874023 5.11352539 C16.95874023 4.12352539 16.95874023 3.13352539 16.95874023 2.11352539 C11.01874023 2.44352539 5.07874023 2.77352539 -1.04125977 3.11352539 C-0.71125977 23.24352539 -0.38125977 43.37352539 -0.04125977 64.11352539 C6.22874023 64.44352539 12.49874023 64.77352539 18.95874023 65.11352539 C18.91233398 62.39102539 18.86592773 59.66852539 18.81811523 56.86352539 C18.78685646 54.20582948 18.76260478 51.54815461 18.73901367 48.89038086 C18.7189865 47.05337246 18.69175641 45.2164271 18.65698242 43.37963867 C18.60806959 40.72827537 18.5856826 38.07775998 18.56811523 35.42602539 C18.54747009 34.61423828 18.52682495 33.80245117 18.5055542 32.96606445 C18.50338552 27.36567266 19.54918554 22.68283499 22.95874023 18.11352539 C25.75561523 17.11352539 25.75561523 17.11352539 28.70874023 17.11352539 C29.69358398 17.09290039 30.67842773 17.07227539 31.69311523 17.05102539 C32.44077148 17.07165039 33.18842773 17.09227539 33.95874023 17.11352539 C33.95874023 17.44352539 33.95874023 17.77352539 33.95874023 18.11352539 C33.35545898 18.15348633 32.75217773 18.19344727 32.13061523 18.23461914 C31.33139648 18.3390332 30.53217773 18.44344727 29.70874023 18.55102539 C28.91983398 18.63223633 28.13092773 18.71344727 27.31811523 18.79711914 C24.03982168 20.62623326 23.10962417 22.48421302 21.73120117 25.9375 C19.9308527 33.33975449 20.26882167 41.09807946 20.20874023 48.67602539 C20.18054511 50.4657674 20.1506128 52.25548294 20.11889648 54.04516602 C20.04545017 58.40123803 19.99561956 62.7569966 19.95874023 67.11352539 C16.31292336 67.14240051 12.6671356 67.16028124 9.02124023 67.17602539 C7.45986328 67.18859375 7.45986328 67.18859375 5.86694336 67.20141602 C4.87758789 67.20463867 3.88823242 67.20786133 2.86889648 67.21118164 C1.49423218 67.21903687 1.49423218 67.21903687 0.09179688 67.22705078 C-2.04125977 67.11352539 -2.04125977 67.11352539 -3.04125977 66.11352539 C-3.14061125 64.0940233 -3.16925484 62.07101624 -3.1706543 60.04907227 C-3.17380646 58.75102661 -3.17695862 57.45298096 -3.1802063 56.11560059 C-3.17841652 54.68782518 -3.17636557 53.26005008 -3.17407227 51.83227539 C-3.17474534 50.37878401 -3.1757154 48.92529275 -3.17697144 47.47180176 C-3.17844823 44.42186412 -3.17629447 41.37195573 -3.17163086 38.32202148 C-3.16593357 34.4042198 -3.16921268 30.48648661 -3.17520332 26.56868744 C-3.17880945 23.56621785 -3.17767011 20.56376462 -3.17507553 17.56129456 C-3.1744064 16.11633801 -3.17523419 14.67138 -3.17755508 13.22642517 C-3.18008242 11.21027656 -3.17555028 9.19412277 -3.1706543 7.17797852 C-3.1698587 6.02849731 -3.16906311 4.87901611 -3.16824341 3.69470215 C-2.99467233 0.16654977 -2.99467233 0.16654977 0 0 Z " fill="#68D48E" transform="translate(894.041259765625,140.886474609375)"/>
<path d="M0 0 C0.99 0 1.98 0 3 0 C3.1025026 15.02057267 3.12177794 30.04536371 2.75 45.0625 C2.73590088 46.19018799 2.72180176 47.31787598 2.70727539 48.47973633 C2.46998605 56.18838544 2.46998605 56.18838544 0.140625 60.2109375 C-2 62 -2 62 -5 62.5625 C-8 62 -8 62 -10.375 60.625 C-12.86963042 56.5952124 -12.31735888 52.61933486 -12 48 C-11.34 48 -10.68 48 -10 48 C-9.95101562 48.69867188 -9.90203125 49.39734375 -9.8515625 50.1171875 C-9.77679688 51.02726562 -9.70203125 51.93734375 -9.625 52.875 C-9.55539063 53.77992188 -9.48578125 54.68484375 -9.4140625 55.6171875 C-9.20431868 58.17941903 -9.20431868 58.17941903 -7 60 C-3.69316534 59.71016731 -3.69316534 59.71016731 -1 58 C-0.91153175 56.22521269 -0.89310611 54.44688875 -0.90234375 52.66992188 C-0.90564697 51.53204224 -0.9089502 50.3941626 -0.91235352 49.22180176 C-0.92480103 47.36404114 -0.92480103 47.36404114 -0.9375 45.46875 C-0.94128662 44.20736206 -0.94507324 42.94597412 -0.94897461 41.6463623 C-0.96124566 37.59754037 -0.97967176 33.54878724 -1 29.5 C-1.02672539 24.17708812 -1.04652076 18.8542081 -1.0625 13.53125 C-1.07494751 11.67348938 -1.07494751 11.67348938 -1.08764648 9.77819824 C-1.09094971 8.6403186 -1.09425293 7.50243896 -1.09765625 6.33007812 C-1.10289307 5.32271606 -1.10812988 4.315354 -1.11352539 3.27746582 C-1 1 -1 1 0 0 Z " fill="#55D68B" transform="translate(207,176)"/>
<path d="M0 0 C3.22121823 1.77167003 3.96931805 3.02100975 5.5 6.375 C5.92167561 9.47223739 5.89689445 12.53450448 5.86328125 15.65625 C5.86377975 16.54735474 5.86427826 17.43845947 5.86479187 18.35656738 C5.86245695 20.23594397 5.8527628 22.11532401 5.83618164 23.99462891 C5.81258062 26.86519444 5.81562632 29.73483074 5.82226562 32.60546875 C5.81668858 34.43490135 5.80957853 36.26433005 5.80078125 38.09375 C5.80214836 39.37674988 5.80214836 39.37674988 5.80354309 40.68566895 C5.73930054 46.10661334 5.51873643 50.35626357 1.5 54.375 C-1.875 54.8125 -1.875 54.8125 -5.5 54.375 C-7.9520203 52.24394763 -9.30274009 50.50206963 -9.87084961 47.25610352 C-10.030138 44.64149454 -10.05427936 42.05688902 -10.03125 39.4375 C-10.03699036 38.00096069 -10.03699036 38.00096069 -10.04284668 36.53540039 C-10.0455632 34.51480048 -10.03822023 32.49416524 -10.02148438 30.47363281 C-10.00007119 27.38526825 -10.02129501 24.29922993 -10.046875 21.2109375 C-10.04423168 19.24478655 -10.03910661 17.27863703 -10.03125 15.3125 C-10.03934692 14.39154541 -10.04744385 13.47059082 -10.05578613 12.52172852 C-9.99462567 8.32881702 -9.85956379 5.97084856 -7.65429688 2.31640625 C-4.97646601 -0.09679763 -3.55612739 -0.88903185 0 0 Z M-7.5 4.375 C-8.75282725 8.13348174 -8.62381835 11.62990919 -8.59765625 15.54296875 C-8.59553383 16.73518791 -8.59553383 16.73518791 -8.59336853 17.95149231 C-8.58777378 20.48853325 -8.57522228 23.02548575 -8.5625 25.5625 C-8.55748432 27.28320185 -8.55292153 29.00390508 -8.54882812 30.72460938 C-8.53780607 34.9414403 -8.52054506 39.15820516 -8.5 43.375 C-7.015 42.88 -7.015 42.88 -5.5 42.375 C-5.52320313 43.00148437 -5.54640625 43.62796875 -5.5703125 44.2734375 C-5.58835938 45.09070313 -5.60640625 45.90796875 -5.625 46.75 C-5.64820313 47.56210938 -5.67140625 48.37421875 -5.6953125 49.2109375 C-5.71370051 51.58842243 -5.71370051 51.58842243 -3.5 53.375 C-0.43008319 53.21057723 -0.43008319 53.21057723 2.5 52.375 C3.64928007 50.07643985 3.63822528 48.74514259 3.66113281 46.18823242 C3.67074036 45.32360886 3.6803479 44.45898529 3.69024658 43.56816101 C3.6966214 42.16350334 3.6966214 42.16350334 3.703125 40.73046875 C3.70882507 39.76853104 3.71452515 38.80659332 3.72039795 37.81550598 C3.72985513 35.77699893 3.73638477 33.73847653 3.74023438 31.69995117 C3.7499284 28.58550195 3.78094038 25.47171579 3.8125 22.35742188 C3.81903116 20.37760809 3.82428119 18.39778958 3.828125 16.41796875 C3.8404718 15.487603 3.8528186 14.55723724 3.86553955 13.59867859 C3.84893758 8.76329859 3.8043872 5.22041895 0.5 1.375 C-3.32072653 0.61085469 -5.19098396 1.25782835 -7.5 4.375 Z " fill="#65D38D" transform="translate(163.5,183.625)"/>
<path d="M0 0 C7.26 0 14.52 0 22 0 C22 22.11 22 44.22 22 67 C15.07 67 8.14 67 1 67 C-2.07021993 63.92978007 -0.98572575 54.96818429 -1.04666138 50.83508301 C-1.02077984 47.56064079 -0.95797853 44.28920842 -0.87890625 41.015625 C-0.85529526 39.83401794 -0.83168427 38.65241089 -0.80735779 37.43499756 C-0.73153763 33.70651717 -0.64716805 29.97828888 -0.5625 26.25 C-0.50919733 23.70313683 -0.45645769 21.15626181 -0.40429688 18.609375 C-0.27603471 12.40609411 -0.14011133 6.20302411 0 0 Z M2 2 C0.64855346 4.70289308 0.88024835 6.80069806 0.88647461 9.82666016 C0.88655014 11.04777496 0.88662567 12.26888977 0.88670349 13.52700806 C0.89181048 14.86435995 0.89702648 16.20171143 0.90234375 17.5390625 C0.9042086 18.90383859 0.90563219 20.26861534 0.90663147 21.63339233 C0.91045137 25.22715093 0.92027717 28.82086917 0.93133545 32.41461182 C0.94156089 36.08108982 0.94613152 39.74757435 0.95117188 43.4140625 C0.9618999 50.60939341 0.97897001 57.80469105 1 65 C3.296537 66.1482685 4.58313167 66.11561175 7.1328125 66.09765625 C7.93847656 66.09443359 8.74414062 66.09121094 9.57421875 66.08789062 C10.41597656 66.07951172 11.25773438 66.07113281 12.125 66.0625 C13.39923828 66.05573242 13.39923828 66.05573242 14.69921875 66.04882812 C16.79950909 66.03702874 18.8997633 66.01909306 21 66 C21.0231271 57.80309439 21.04091696 49.60620232 21.05181217 41.40927219 C21.0570402 37.60348423 21.06413638 33.79771852 21.07543945 29.99194336 C21.0862712 26.32207456 21.09227744 22.65222722 21.09487724 18.98234367 C21.09673097 17.57925008 21.1003506 16.17615771 21.10573006 14.7730732 C21.11294419 12.8143032 21.11340809 10.8555118 21.11352539 8.89672852 C21.115746 7.77976089 21.11796661 6.66279327 21.12025452 5.51197815 C21.28510776 3.06094586 21.28510776 3.06094586 20 2 C18.65732587 1.91368126 17.31025678 1.89293527 15.96484375 1.90234375 C15.15595703 1.90556641 14.34707031 1.90878906 13.51367188 1.91210938 C12.66353516 1.92048828 11.81339844 1.92886719 10.9375 1.9375 C10.08349609 1.94201172 9.22949219 1.94652344 8.34960938 1.95117188 C6.23304337 1.96299627 4.11651315 1.98093231 2 2 Z " fill="#6DD794" transform="translate(852,141)"/>
<path d="M0 0 C0.33 0 0.66 0 1 0 C1.09267747 9.18809939 1.16375324 18.37603791 1.20724869 27.56450272 C1.22812433 31.83109292 1.25644109 36.09736336 1.30175781 40.36376953 C1.3452171 44.48106784 1.36913728 48.59805857 1.37950897 52.71556854 C1.38690027 54.2864847 1.40133388 55.85738402 1.42292023 57.42816925 C1.45195682 59.62858969 1.45595612 61.82773913 1.45410156 64.02832031 C1.46298401 65.28074524 1.47186646 66.53317017 1.48101807 67.82354736 C1 71 1 71 -0.8057251 73.40838623 C-3.97080173 75.70416948 -6.19130717 75.48474272 -10 75 C-11.9375 73.5 -11.9375 73.5 -13 72 C-12.67 71.01 -12.34 70.02 -12 69 C-11.34 69.99 -10.68 70.98 -10 72 C-7.43717258 72.72965366 -7.43717258 72.72965366 -5 73 C-5.66 72.34 -6.32 71.68 -7 71 C-7 69.68 -7 68.36 -7 67 C-5.35 67 -3.7 67 -2 67 C-1.98969254 66.17536758 -1.97938507 65.35073517 -1.96876526 64.50111389 C-1.8709612 56.74594316 -1.76847166 48.99085547 -1.66066074 41.23581791 C-1.60539527 37.24846784 -1.55196963 33.26111048 -1.50268555 29.27368164 C-1.45509524 25.42868399 -1.40275464 21.58377818 -1.34705925 17.73888969 C-1.32661143 16.26883658 -1.30790244 14.79875826 -1.29092598 13.32866096 C-1.26693536 11.27638724 -1.2368741 9.22428853 -1.20532227 7.17211914 C-1.18977798 6.00185684 -1.1742337 4.83159454 -1.15821838 3.62586975 C-1 1 -1 1 0 0 Z " fill="#5BD786" transform="translate(249,163)"/>
<path d="M0 0 C2.6875 0.875 2.6875 0.875 5 2 C5 3.98 5 5.96 5 8 C4.01 8 3.02 8 2 8 C2 6.68 2 5.36 2 4 C1.34 4 0.68 4 0 4 C0.08378906 4.61488281 0.16757812 5.22976562 0.25390625 5.86328125 C0.35574219 6.67152344 0.45757813 7.47976562 0.5625 8.3125 C0.66691406 9.11300781 0.77132812 9.91351563 0.87890625 10.73828125 C1 13 1 13 0 16 C1.32 16.33 2.64 16.66 4 17 C3.67 18.32 3.34 19.64 3 21 C2.34 21 1.68 21 1 21 C1 22.65 1 24.3 1 26 C0.01 25.67 -0.98 25.34 -2 25 C-2 24.34 -2 23.68 -2 23 C-3.74671588 22.20643199 -3.74671588 22.20643199 -6 22 C-8.72981832 23.35400645 -8.72981832 23.35400645 -11 25 C-12.37562854 23.71034824 -13.70766393 22.37310707 -15 21 C-15 20.34 -15 19.68 -15 19 C-14.21625 18.9175 -13.4325 18.835 -12.625 18.75 C-9.85250896 18.27193661 -9.85250896 18.27193661 -8.6875 15.9375 C-8.460625 15.298125 -8.23375 14.65875 -8 14 C-7.34 14 -6.68 14 -6 14 C-6 13.34 -6 12.68 -6 12 C-4.68 12 -3.36 12 -2 12 C-1.9690625 10.081875 -1.9690625 10.081875 -1.9375 8.125 C-1.92589844 7.40570313 -1.91429687 6.68640625 -1.90234375 5.9453125 C-1.87350758 3.91814596 -1.87350758 3.91814596 -3 2 C-2.01 1.34 -1.02 0.68 0 0 Z " fill="#47DD7F" transform="translate(604,178)"/>
<path d="M0 0 C4.81898583 3.53392294 7.16885064 6.12104679 9 12 C9.98671619 18.61127217 10.14885231 25.23763547 10.1328125 31.91015625 C10.13424759 33.25043129 10.13424759 33.25043129 10.13571167 34.61778259 C10.13638616 36.48404003 10.13458349 38.35029993 10.13037109 40.21655273 C10.12495475 43.08647807 10.13036991 45.95625096 10.13671875 48.82617188 C10.13605896 50.64583368 10.13477985 52.46549539 10.1328125 54.28515625 C10.13483673 55.14544937 10.13686096 56.00574249 10.13894653 56.8921051 C10.11498884 62.88501116 10.11498884 62.88501116 9 64 C7.36527118 64.08700342 5.72685945 64.10701063 4.08984375 64.09765625 C3.10048828 64.09443359 2.11113281 64.09121094 1.09179688 64.08789062 C0.05087891 64.07951172 -0.99003906 64.07113281 -2.0625 64.0625 C-3.10728516 64.05798828 -4.15207031 64.05347656 -5.22851562 64.04882812 C-7.8190666 64.03699913 -10.40950559 64.02051689 -13 64 C-14.55716038 60.88567924 -14.10002518 57.59068618 -14.0625 54.17578125 C-14.05871338 53.39615524 -14.05492676 52.61652924 -14.05102539 51.8132782 C-14.03468681 48.47514426 -14.00672842 45.13713234 -13.97949219 41.79907227 C-13.96129368 39.3621478 -13.94926408 36.92524397 -13.9375 34.48828125 C-13.92920166 33.7432283 -13.92090332 32.99817535 -13.91235352 32.23054504 C-13.89144183 27.71193224 -14.25513994 23.45852996 -15 19 C-13.12700892 20.57504115 -12.09968609 21.47021711 -11.63923645 23.9172821 C-11.64589828 24.63898087 -11.65256012 25.36067963 -11.65942383 26.10424805 C-11.65965042 26.92487228 -11.65987701 27.74549652 -11.66011047 28.59098816 C-11.67559433 29.47232925 -11.69107819 30.35367035 -11.70703125 31.26171875 C-11.71127609 32.16751175 -11.71552094 33.07330475 -11.71989441 34.00654602 C-11.73669152 36.90049933 -11.7743455 39.79375706 -11.8125 42.6875 C-11.82754551 44.64907849 -11.84123415 46.61066789 -11.85351562 48.57226562 C-11.88404712 53.38199419 -11.94276593 58.19021825 -12 63 C-5.4 63 1.2 63 8 63 C8.02304447 57.59223096 8.04293142 52.18463461 8.05493164 46.77685547 C8.05993819 44.93993551 8.0667454 43.10301949 8.07543945 41.26611328 C8.08766697 38.61489892 8.09326523 35.96373757 8.09765625 33.3125 C8.10281754 32.50071289 8.10797882 31.68892578 8.11329651 30.85253906 C8.11378442 25.81265411 7.72096204 20.98935667 7 16 C6.34 16 5.68 16 5 16 C5.020625 14.88625 5.04125 13.7725 5.0625 12.625 C5.26380718 9.16784079 5.26380718 9.16784079 4 7 C1.98330173 5.86649466 1.98330173 5.86649466 0 5 C0 3.35 0 1.7 0 0 Z " fill="#71D693" transform="translate(947,144)"/>
<path d="M0 0 C3.55159187 0.9865533 4.95787602 1.95011633 7.375 4.8125 C9 8 9 8 8.75 10.875 C8.5025 11.57625 8.255 12.2775 8 13 C7.34 13 6.68 13 6 13 C5.67 11.02 5.34 9.04 5 7 C4.01 7.495 4.01 7.495 3 8 C2.01 7.67 1.02 7.34 0 7 C0 6.34 0 5.68 0 5 C-0.99 5.495 -0.99 5.495 -2 6 C-2.95806604 11.45080657 -3.11641605 16.74225591 -3.02734375 22.26171875 C-3.01470968 23.80794057 -3.00234785 25.35416464 -2.99023438 26.90039062 C-2.96536144 29.30321493 -2.93724556 31.70591828 -2.90405273 34.10864258 C-2.8738013 36.4513423 -2.85607469 38.79388583 -2.83984375 41.13671875 C-2.82638412 41.85139816 -2.8129245 42.56607758 -2.79905701 43.30241394 C-2.7789016 47.32619537 -3.2152987 50.37910294 -5 54 C-5.33 54 -5.66 54 -6 54 C-6.12686439 47.25581973 -6.21437811 40.51194756 -6.2746582 33.7668457 C-6.29978928 31.47278342 -6.33389969 29.1788011 -6.37719727 26.88500977 C-6.43790832 23.58589951 -6.46622437 20.28784854 -6.48828125 16.98828125 C-6.51408768 15.96414627 -6.5398941 14.94001129 -6.56648254 13.88484192 C-6.56929905 6.72067661 -6.56929905 6.72067661 -3.53198242 2.87573242 C-2.27865112 1.94724487 -2.27865112 1.94724487 -1 1 C-0.67 0.67 -0.34 0.34 0 0 Z " fill="#62D289" transform="translate(201,115)"/>
<path d="M0 0 C0.33 0 0.66 0 1 0 C1.7008196 10.51229399 -1.07659403 19.91852957 -7.94921875 28.02734375 C-13.28217311 33.15713794 -20.45589876 37.60694599 -28 38 C-36.6877518 37.57746403 -43.81046642 35.98322169 -51 31 C-50.67 30.34 -50.34 29.68 -50 29 C-49.05125 29.495 -48.1025 29.99 -47.125 30.5 C-44.27721834 32.14424369 -44.27721834 32.14424369 -42 32 C-41.67 31.34 -41.34 30.68 -41 30 C-40.01 30.33 -39.02 30.66 -38 31 C-38 32.32 -38 33.64 -38 35 C-31.73 34.67 -25.46 34.34 -19 34 C-19 33.34 -19 32.68 -19 32 C-18.34 32 -17.68 32 -17 32 C-17 31.01 -17 30.02 -17 29 C-15.02 29 -13.04 29 -11 29 C-10.855625 27.88625 -10.71125 26.7725 -10.5625 25.625 C-10 22 -10 22 -9 20 C-8.360625 19.71125 -7.72125 19.4225 -7.0625 19.125 C-4.47242515 17.7122319 -3.99460945 16.7543031 -3 14 C-2.61709538 12.00889599 -2.27395385 10.00899487 -2 8 C-1.34 8 -0.68 8 0 8 C0 5.36 0 2.72 0 0 Z " fill="#69D692" transform="translate(711,172)"/>
<path d="M0 0 C1.3125 2.125 1.3125 2.125 2 4 C1.505 3.649375 1.01 3.29875 0.5 2.9375 C-2.20347727 1.92369602 -3.3594574 2.0349618 -6.15625 2.44140625 C-7.4246875 2.62574219 -8.693125 2.81007812 -10 3 C-9.99777939 3.77150391 -9.99555878 4.54300781 -9.99327087 5.33789062 C-9.97317297 12.63460563 -9.95797761 19.93130707 -9.94818783 27.2280426 C-9.94298551 30.97870064 -9.93593639 34.72933567 -9.92456055 38.47998047 C-9.91363698 42.10449447 -9.90770322 45.72898643 -9.90512276 49.35351562 C-9.90328549 50.73128608 -9.89969799 52.10905542 -9.89426994 53.48681641 C-9.86808764 60.41251377 -9.90548507 67.15265399 -11 74 C-11.33 74 -11.66 74 -12 74 C-12.06955955 65.08991035 -12.12284139 56.17991441 -12.15543652 47.26961231 C-12.17108182 43.13203644 -12.19229917 38.99464657 -12.22631836 34.85717773 C-12.25895259 30.86308149 -12.27686156 26.86916398 -12.28463173 22.87494469 C-12.29016797 21.35232416 -12.300979 19.82971325 -12.31719017 18.30716896 C-12.33901914 16.1717693 -12.34196474 14.0371049 -12.34057617 11.90161133 C-12.34723801 10.6869368 -12.35389984 9.47226227 -12.36076355 8.22077942 C-11.96532602 4.69044198 -11.09612545 2.83505732 -9 0 C-5.61450951 -2.59554271 -3.60450775 -2.08682028 0 0 Z " fill="#6AD28E" transform="translate(247,158)"/>
<path d="M0 0 C13.2 0 26.4 0 40 0 C40 16.17 40 32.34 40 49 C38.68 49.66 37.36 50.32 36 51 C36.66 50.01 37.32 49.02 38 48 C38.28886972 45.83963669 38.28886972 45.83963669 38.22705078 43.43676758 C38.22682419 42.05567558 38.22682419 42.05567558 38.22659302 40.64668274 C38.21627045 39.65597275 38.20594788 38.66526276 38.1953125 37.64453125 C38.19106766 36.11937141 38.19106766 36.11937141 38.18673706 34.56340027 C38.17553383 31.31298092 38.15042886 28.06283619 38.125 24.8125 C38.11497039 22.61003002 38.10584451 20.40755572 38.09765625 18.20507812 C38.07729483 12.80319426 38.03814605 7.40190487 38 2 C26.12 1.67 14.24 1.34 2 1 C2.33 6.28 2.66 11.56 3 17 C6.80955639 18.90477819 10.40716321 18.17565535 14.375 17 C15.24125 16.67 16.1075 16.34 17 16 C17 17.32 17 18.64 17 20 C14.72923158 20.02699725 12.45837179 20.04639453 10.1875 20.0625 C8.29064453 20.07990234 8.29064453 20.07990234 6.35546875 20.09765625 C3 20 3 20 0 19 C0 12.73 0 6.46 0 0 Z " fill="#73CF97" transform="translate(379,152)"/>
<path d="M0 0 C5.94 0 11.88 0 18 0 C18 0.33 18 0.66 18 1 C12.72 1 7.44 1 2 1 C2 32.68 2 64.36 2 97 C7.94 97.66 13.88 98.32 20 99 C20.66 97.68 21.32 96.36 22 95 C21.67 96.65 21.34 98.3 21 100 C17.68751813 100.02888146 14.37506833 100.04675799 11.0625 100.0625 C10.11697266 100.07087891 9.17144531 100.07925781 8.19726562 100.08789062 C6.84858398 100.09272461 6.84858398 100.09272461 5.47265625 100.09765625 C4.64000244 100.10289307 3.80734863 100.10812988 2.94946289 100.11352539 C1 100 1 100 0 99 C-0.09532328 95.92545239 -0.1255138 92.87340842 -0.11352539 89.79858398 C-0.11367142 88.83283447 -0.11381744 87.86708496 -0.1139679 86.87207031 C-0.11326834 83.66338901 -0.10547397 80.45476497 -0.09765625 77.24609375 C-0.09579222 75.02791882 -0.09436825 72.80974348 -0.09336853 70.59156799 C-0.08954216 64.74059929 -0.07971086 58.88965523 -0.06866455 53.03869629 C-0.05845299 47.07332696 -0.05387146 41.10795367 -0.04882812 35.14257812 C-0.03808869 23.42837456 -0.02101085 11.71418933 0 0 Z " fill="#6BD290" transform="translate(638,108)"/>
<path d="M0 0 C-1.36125 -0.12375 -1.36125 -0.12375 -2.75 -0.25 C-6.73735823 0.05671986 -7.32027434 1.23095015 -10 4 C-12.1875 3.875 -12.1875 3.875 -14 3 C-14.33 2.34 -14.66 1.68 -15 1 C-13.35 0.67 -11.7 0.34 -10 0 C-12.22909871 -0.02714735 -14.45829367 -0.04646254 -16.6875 -0.0625 C-17.92886719 -0.07410156 -19.17023437 -0.08570313 -20.44921875 -0.09765625 C-23.46235454 -0.01478673 -26.08275339 0.29160551 -29 1 C-29 1.66 -29 2.32 -29 3 C-29.99 3.66 -30.98 4.32 -32 5 C-32.59070014 6.94603274 -32.59070014 6.94603274 -33 9 C-33.99 10.485 -33.99 10.485 -35 12 C-35.99 12 -36.98 12 -38 12 C-38.33 12.99 -38.66 13.98 -39 15 C-40.65 13.35 -42.3 11.7 -44 10 C-42.32954187 4.98862561 -37.49902979 3.38337572 -33 1 C-23.74125292 -3.36986074 -8.89023824 -5.92682549 0 0 Z " fill="#55DB86" transform="translate(606,142)"/>
<path d="M0 0 C7.45939414 5.42501392 9.90605693 11.41063265 11.60073853 20.32394409 C12.21755008 24.45813262 12.26702681 28.51843251 12.23046875 32.69140625 C12.22978142 33.99838722 12.22978142 33.99838722 12.2290802 35.33177185 C12.22608678 37.15096419 12.21828936 38.97015464 12.20581055 40.78930664 C12.18733928 43.58684222 12.18530274 46.3840499 12.18554688 49.18164062 C12.18063859 50.95573205 12.1748133 52.72982124 12.16796875 54.50390625 C12.16685593 55.34232559 12.1657431 56.18074493 12.16459656 57.04457092 C12.11611898 62.88388102 12.11611898 62.88388102 11 64 C9.5112814 64.08669432 8.018555 64.10703494 6.52734375 64.09765625 C5.62822266 64.09443359 4.72910156 64.09121094 3.80273438 64.08789062 C2.38444336 64.07532227 2.38444336 64.07532227 0.9375 64.0625 C-0.01189453 64.05798828 -0.96128906 64.05347656 -1.93945312 64.04882812 C-4.29303065 64.0370011 -6.64648477 64.02052025 -9 64 C-9 63.01 -9 62.02 -9 61 C-8.01 61.33 -7.02 61.66 -6 62 C-3.42734182 62.07029121 -0.88358569 62.09370832 1.6875 62.0625 C2.38939453 62.05798828 3.09128906 62.05347656 3.81445312 62.04882812 C5.54300538 62.03706927 7.27151365 62.01913454 9 62 C9.87835008 58.22143739 10.12870435 54.71949793 10.1328125 50.84375 C10.13410156 49.65523437 10.13539063 48.46671875 10.13671875 47.2421875 C10.13091797 45.38980469 10.13091797 45.38980469 10.125 43.5 C10.12886719 42.29601562 10.13273438 41.09203125 10.13671875 39.8515625 C10.12812251 31.85705561 9.73110452 23.96054581 9 16 C8.34 16 7.68 16 7 16 C7 14.02 7 12.04 7 10 C6.34 10 5.68 10 5 10 C4.67 10.66 4.34 11.32 4 12 C3 9 3 9 3 5 C2.01 4.34 1.02 3.68 0 3 C0 2.01 0 1.02 0 0 Z " fill="#65CB91" transform="translate(824,144)"/>
<path d="M0 0 C3.85025879 0.60355408 6.86101159 1.76772603 10.3125 3.5625 C11.19550781 4.01753906 12.07851563 4.47257813 12.98828125 4.94140625 C13.98408203 5.46541016 13.98408203 5.46541016 15 6 C12.34501768 7.0169313 11.30844625 7.13022151 8.640625 6.00390625 C7.85171875 5.52824219 7.0628125 5.05257812 6.25 4.5625 C5.45078125 4.08941406 4.6515625 3.61632812 3.828125 3.12890625 C3.22484375 2.75636719 2.6215625 2.38382813 2 2 C2.17402344 2.76699219 2.34804688 3.53398437 2.52734375 4.32421875 C3.03783279 7.21417737 2.7248496 9.18114044 2 12 C-0.64 12.33 -3.28 12.66 -6 13 C-6 13.66 -6 14.32 -6 15 C-4.02 14.67 -2.04 14.34 0 14 C-0.66 15.98 -1.32 17.96 -2 20 C-1.030625 20.12375 -0.06125 20.2475 0.9375 20.375 C2.4534375 20.684375 2.4534375 20.684375 4 21 C4.33 21.66 4.66 22.32 5 23 C-1.16529701 22.68383092 -5.17268433 19.50784939 -10 16 C-6.93978541 10.46807362 -3.5552157 5.22616707 0 0 Z " fill="#64D890" transform="translate(483,212)"/>
<path d="M0 0 C3.66881155 0.70554068 6.70450534 2.27735506 10 4 C9.34 5.65 8.68 7.3 8 9 C12.50353262 10.75747614 16.17639811 11.19294408 21 11 C21.66 12.32 22.32 13.64 23 15 C31.69257675 14.96075586 38.35032677 11.92075728 46 8 C47.625 9.58203125 47.625 9.58203125 49 12 C48.375 15.19921875 48.375 15.19921875 47 18.6875 C46.566875 19.84636719 46.13375 21.00523437 45.6875 22.19921875 C44 25 44 25 41.3125 25.89453125 C40.1678125 25.94673828 40.1678125 25.94673828 39 26 C39.804375 25.195625 40.60875 24.39125 41.4375 23.5625 C44.68813058 19.73336737 44.88073863 15.8788744 45 11 C44.45730469 11.27714844 43.91460938 11.55429688 43.35546875 11.83984375 C42.64003906 12.20207031 41.92460938 12.56429687 41.1875 12.9375 C40.47980469 13.29714844 39.77210938 13.65679687 39.04296875 14.02734375 C31.64591538 17.54907662 22.75900843 16.92319395 15.125 14.375 C8.82888684 11.76844586 4.46814727 8.55741783 1.0625 2.625 C0.711875 1.75875 0.36125 0.8925 0 0 Z " fill="#64D98D" transform="translate(477,192)"/>
<path d="M0 0 C2.0209846 1.65244463 2.92060026 2.52789679 3.36076355 5.14506531 C3.35410172 5.97335342 3.34743988 6.80164154 3.34057617 7.6550293 C3.34034958 8.59577805 3.34012299 9.53652679 3.33988953 10.50578308 C3.32440567 11.51836685 3.30892181 12.53095062 3.29296875 13.57421875 C3.28872391 14.61318802 3.28447906 15.65215729 3.28010559 16.72261047 C3.26329849 20.04450276 3.22564196 23.36579075 3.1875 26.6875 C3.17245582 28.93814229 3.15876695 31.18879407 3.14648438 33.43945312 C3.11338836 38.95984197 3.06316869 44.47987782 3 50 C2.01 50.495 2.01 50.495 1 51 C-0.21983748 48.56032503 -0.12051527 47.00095476 -0.11352539 44.27490234 C-0.11344986 43.29403656 -0.11337433 42.31317078 -0.11329651 41.30258179 C-0.10813522 40.24108917 -0.10297394 39.17959656 -0.09765625 38.0859375 C-0.0962413 37.00116119 -0.09482635 35.91638489 -0.09336853 34.79873657 C-0.08775802 31.32413 -0.07520372 27.84958719 -0.0625 24.375 C-0.05748635 22.02343843 -0.05292321 19.67187585 -0.04882812 17.3203125 C-0.03778518 11.54685314 -0.02103679 5.77343112 0 0 Z " fill="#44E69A" transform="translate(194,173)"/>
<path d="M0 0 C-1.24663331 0.50833591 -2.49749387 1.00631145 -3.75 1.5 C-4.44609375 1.7784375 -5.1421875 2.056875 -5.859375 2.34375 C-8 3 -8 3 -12 3 C-12 3.66 -12 4.32 -12 5 C-12.99 5 -13.98 5 -15 5 C-15 5.66 -15 6.32 -15 7 C-15.66 7 -16.32 7 -17 7 C-17.0825 7.7425 -17.165 8.485 -17.25 9.25 C-18 12 -18 12 -20.0625 13.6875 C-22.78083602 16.93196557 -22.43930856 19.47769572 -22.2578125 23.59765625 C-21.70623017 28.73740073 -19.9684983 31.7118157 -16 35 C-14.34795544 35.70211894 -12.68076231 36.36971413 -11 37 C-9.63634717 37.95824253 -8.29205831 38.94721175 -7 40 C-13.18529813 39.41092399 -17.00120746 37.10983657 -21.25 32.625 C-24.61823851 27.57264224 -25.51961891 23.02757936 -25 17 C-23.82604237 11.50374382 -21.61152233 7.78242143 -17.16796875 4.32421875 C-12.10339287 1.23072105 -5.90397441 -2.11547561 0 0 Z " fill="#6FD593" transform="translate(797,168)"/>
<path d="M0 0 C2.64 0.99 5.28 1.98 8 3 C6.02 8.28 4.04 13.56 2 19 C1.01 19 0.02 19 -1 19 C-1.33 18.34 -1.66 17.68 -2 17 C-2.33 17.33 -2.66 17.66 -3 18 C-4.51928038 18.07179964 -6.04167482 18.08392007 -7.5625 18.0625 C-8.38878906 18.05347656 -9.21507812 18.04445312 -10.06640625 18.03515625 C-11.02353516 18.01775391 -11.02353516 18.01775391 -12 18 C-12.33 17.01 -12.66 16.02 -13 15 C-13.66 15 -14.32 15 -15 15 C-15 14.34 -15 13.68 -15 13 C-15.66 13 -16.32 13 -17 13 C-16.88648483 11.18674449 -16.75887039 9.37436643 -16.625 7.5625 C-16.55539062 6.55316406 -16.48578125 5.54382813 -16.4140625 4.50390625 C-16.27742187 3.67761719 -16.14078125 2.85132813 -16 2 C-14 1 -14 1 -11.9375 1.4375 C-7.94548895 2.20192765 -4.05167346 2.07944458 0 2 C0 1.34 0 0.68 0 0 Z M-14 6 C-15.32908167 8.89072953 -15.32908167 8.89072953 -15 12 C-13.69138543 14.55985074 -13.69138543 14.55985074 -11 16 C-6.07833199 16.63505394 -4.011718 16.54333004 0.375 14.1875 C3.14574323 12.08914751 3.14574323 12.08914751 5 9 C5.16699232 5.87478167 5.16699232 5.87478167 5 3 C-5.10569179 2.15655991 -5.10569179 2.15655991 -14 6 Z " fill="#57DE8F" transform="translate(809,177)"/>
<path d="M0 0 C0.66 0.33 1.32 0.66 2 1 C1 3 1 3 -1.5625 4.5 C-2.366875 4.995 -3.17125 5.49 -4 6 C-4 6.66 -4 7.32 -4 8 C-3.01 8 -2.02 8 -1 8 C-1.375 9.9375 -1.375 9.9375 -2 12 C-2.99 12.495 -2.99 12.495 -4 13 C-4.33 13.99 -4.66 14.98 -5 16 C-5.66 16 -6.32 16 -7 16 C-7 15.01 -7 14.02 -7 13 C-7.66 13 -8.32 13 -9 13 C-9.66 15.31 -10.32 17.62 -11 20 C-10.34 20.33 -9.68 20.66 -9 21 C-9.66 21.66 -10.32 22.32 -11 23 C-11.17350175 25.95247048 -11.23184077 28.80017189 -11.1875 31.75 C-11.1865332 32.94882813 -11.1865332 32.94882813 -11.18554688 34.171875 C-11.15312335 38.55265389 -10.86926787 42.68843139 -10 47 C-14.38060473 42.61939527 -14.31680295 36.1395414 -14.375 30.25 C-14.32860483 19.68166918 -11.36344567 10.80525241 -4 3 C-2.68946944 1.97029741 -1.3609625 0.9620597 0 0 Z " fill="#6ED696" transform="translate(487,144)"/>
<path d="M0 0 C1.32 0.66 2.64 1.32 4 2 C2.8553125 2.7734375 2.8553125 2.7734375 1.6875 3.5625 C-1.60220434 6.54618533 -2.72540678 8.75135592 -4 13 C-4 19.33077495 -2.3842345 23.39910275 2 28 C4.13375737 29.45050496 4.13375737 29.45050496 6 30 C5.67 30.66 5.34 31.32 5 32 C3.02 31.34 1.04 30.68 -1 30 C-1 30.99 -1 31.98 -1 33 C-1.99 33 -2.98 33 -4 33 C-3.34 30.36 -2.68 27.72 -2 25 C-2.66 25 -3.32 25 -4 25 C-4 24.01 -4 23.02 -4 22 C-4.66 22 -5.32 22 -6 22 C-6.04898438 21.18015625 -6.09796875 20.3603125 -6.1484375 19.515625 C-6.22320313 18.43796875 -6.29796875 17.3603125 -6.375 16.25 C-6.44460938 15.18265625 -6.51421875 14.1153125 -6.5859375 13.015625 C-6.9728223 10.19793568 -7.55686166 8.4169634 -9 6 C-7.71937515 4.2925002 -6.38232443 2.62626404 -5 1 C-4.34 1 -3.68 1 -3 1 C-3 1.66 -3 2.32 -3 3 C-2.01 3 -1.02 3 0 3 C0 2.01 0 1.02 0 0 Z " fill="#55DA83" transform="translate(665,159)"/>
<path d="M0 0 C0.66 0 1.32 0 2 0 C1.50223488 4.29703359 -1.04684563 6.51424898 -3.9375 9.5625 C-6.53959147 12.32184016 -8.89514078 14.84271117 -11 18 C-14.20758246 17.35119355 -16.67190321 16.19446681 -19.5 14.5625 C-22.29931162 12.95673049 -25.10000291 11.41704403 -28 10 C-23.22790647 9.06429539 -20.3927772 8.86636536 -16 11 C-15.34 11 -14.68 11 -14 11 C-14 12.65 -14 14.3 -14 16 C-13.01 16 -12.02 16 -11 16 C-10.25073929 12.33694766 -9.7619986 9.57644848 -11 6 C-9.68 5.67 -8.36 5.34 -7 5 C-6.67 5.66 -6.34 6.32 -6 7 C-5.01 7 -4.02 7 -3 7 C-1.79371992 4.66785852 -0.8345262 2.50357861 0 0 Z " fill="#64D690" transform="translate(416,123)"/>
<path d="M0 0 C0.58007812 0.08378906 1.16015625 0.16757813 1.7578125 0.25390625 C6.42315303 0.86209421 10.35442117 1.07205665 15 0 C12.21747944 2.78252056 9.02859334 3.18122629 5.3125 4.0625 C4.61705078 4.23587891 3.92160156 4.40925781 3.20507812 4.58789062 C-11.96054115 8.28371381 -25.19902457 7.30573831 -40 3 C-40 2.67 -40 2.34 -40 2 C-37.36 1.67 -34.72 1.34 -32 1 C-32 1.66 -32 2.32 -32 3 C-31.37351562 3.06058594 -30.74703125 3.12117187 -30.1015625 3.18359375 C-29.28429687 3.26738281 -28.46703125 3.35117188 -27.625 3.4375 C-26.40683594 3.55931641 -26.40683594 3.55931641 -25.1640625 3.68359375 C-23 4 -23 4 -21 5 C-13.48626179 5.36952811 -6.39453931 4.2800439 1 3 C0.505 1.515 0.505 1.515 0 0 Z " fill="#70D893" transform="translate(400,203)"/>
<path d="M0 0 C0.66 0.33 1.32 0.66 2 1 C0.47005208 2.20442708 -1.05989583 3.40885417 -2.58984375 4.61328125 C-4.27155077 6.05683091 -4.27155077 6.05683091 -5 9 C-4.01 9.33 -3.02 9.66 -2 10 C-5.75 13 -5.75 13 -8 13 C-9.06775224 14.96466413 -10.06553465 16.96855359 -11 19 C-10.67 19.66 -10.34 20.32 -10 21 C-11.65 21.66 -13.3 22.32 -15 23 C-14.67 24.32 -14.34 25.64 -14 27 C-14.66 27 -15.32 27 -16 27 C-16.33 28.98 -16.66 30.96 -17 33 C-17.66 32.67 -18.32 32.34 -19 32 C-14.30476922 14.88110546 -14.30476922 14.88110546 -8 8 C-7.29875 7.071875 -6.5975 6.14375 -5.875 5.1875 C-4.06992371 3.08157766 -2.28828728 1.55276637 0 0 Z " fill="#63D98F" transform="translate(350,121)"/>
<path d="M0 0 C-3.71323507 1.37527225 -5.43230814 0.45178803 -9 -1 C-11.42992135 -1.28335716 -13.8699502 -1.48803459 -16.3125 -1.625 C-18.19388672 -1.73714844 -18.19388672 -1.73714844 -20.11328125 -1.8515625 C-21.06589844 -1.90054688 -22.01851562 -1.94953125 -23 -2 C-22.67 -1.01 -22.34 -0.02 -22 1 C-22.9375 3.1875 -22.9375 3.1875 -24 5 C-25.65 5 -27.3 5 -29 5 C-28.49396008 2.83125748 -28.00016187 1.00032373 -27 -1 C-27.60328125 -0.77183594 -28.2065625 -0.54367188 -28.828125 -0.30859375 C-29.62734375 -0.02113281 -30.4265625 0.26632813 -31.25 0.5625 C-32.03890625 0.85253906 -32.8278125 1.14257812 -33.640625 1.44140625 C-36.19103452 2.04522837 -37.55322229 1.8473932 -40 1 C-26.56208783 -4.31093955 -13.59210229 -6.12977162 0 0 Z " fill="#66D78D" transform="translate(824,143)"/>
<path d="M0 0 C1.03125 0.7425 2.0625 1.485 3.125 2.25 C2.135 2.58 1.145 2.91 0.125 3.25 C-0.535 2.59 -1.195 1.93 -1.875 1.25 C-4.07204511 0.57348793 -4.07204511 0.57348793 -6.5 0.125 C-7.31726563 -0.04257813 -8.13453125 -0.21015625 -8.9765625 -0.3828125 C-9.60304688 -0.50398438 -10.22953125 -0.62515625 -10.875 -0.75 C-10.875 -1.41 -10.875 -2.07 -10.875 -2.75 C-12.2671875 -2.688125 -12.2671875 -2.688125 -13.6875 -2.625 C-16.875 -2.75 -16.875 -2.75 -19.875 -4.75 C-23.08896433 -5.18069802 -26.32275557 -5.07419583 -29.5625 -5.0625 C-30.43583984 -5.07861328 -31.30917969 -5.09472656 -32.20898438 -5.11132812 C-38.1508382 -5.11576566 -42.41016196 -4.05161867 -47.875 -1.75 C-50.875 -1.5625 -50.875 -1.5625 -52.875 -1.75 C-40.6907648 -12.91888227 -12.63036381 -7.69662795 0 0 Z " fill="#6BD38F" transform="translate(411.875,118.75)"/>
<path d="M0 0 C3.37462715 0.54723683 5.08235 1.0549 8 3 C8.1875 6.125 8.1875 6.125 8 9 C4.80796259 10.89295242 2.56011744 11.20000438 -1.125 11.0625 C-4.70346806 10.86083205 -4.70346806 10.86083205 -8 12 C-9.54023996 12.06950541 -11.08334988 12.08452357 -12.625 12.0625 C-13.85089844 12.04896484 -13.85089844 12.04896484 -15.1015625 12.03515625 C-16.04128906 12.01775391 -16.04128906 12.01775391 -17 12 C-17 12.66 -17 13.32 -17 14 C-18.60149886 14.67305018 -20.20631029 15.33822227 -21.8125 16 C-22.70582031 16.37125 -23.59914063 16.7425 -24.51953125 17.125 C-27 18 -27 18 -30 18 C-21.96018134 10.49616925 -11.74927178 8.80366712 -1.125 8.9375 C-0.09246094 8.94426758 -0.09246094 8.94426758 0.9609375 8.95117188 C2.64066335 8.96283664 4.32034375 8.98076729 6 9 C4.69704214 4.6685455 3.96496441 2.37897865 0 0 Z " fill="#70D695" transform="translate(594,157)"/>
<path d="M0 0 C0.763125 0.928125 1.52625 1.85625 2.3125 2.8125 C3.075625 3.575625 3.83875 4.33875 4.625 5.125 C5.181875 5.681875 5.73875 6.23875 6.3125 6.8125 C5.9825 7.4725 5.6525 8.1325 5.3125 8.8125 C4.52875 8.173125 3.745 7.53375 2.9375 6.875 C-1.75088203 3.19127126 -5.84812054 3.13200539 -11.6875 3.8125 C-15.08238422 5.86357588 -16.49073081 7.51734621 -18.6875 10.8125 C-19.07763716 12.8021995 -19.41952649 14.80269869 -19.6875 16.8125 C-20.0175 16.8125 -20.3475 16.8125 -20.6875 16.8125 C-21.2890813 11.99984958 -20.87629636 9.5348786 -18 5.5625 C-14.47193864 1.30079971 -11.53844718 -0.65865795 -6.1875 -2.1875 C-2.6875 -2.1875 -2.6875 -2.1875 0 0 Z " fill="#69D891" transform="translate(515.6875,156.1875)"/>
<path d="M0 0 C0.886875 0.020625 1.77375 0.04125 2.6875 0.0625 C2.6875 0.3925 2.6875 0.7225 2.6875 1.0625 C2.08421875 1.10246094 1.4809375 1.14242187 0.859375 1.18359375 C0.06015625 1.28800781 -0.7390625 1.39242187 -1.5625 1.5 C-2.35140625 1.58121094 -3.1403125 1.66242188 -3.953125 1.74609375 C-7.23141856 3.57520787 -8.16161607 5.43318763 -9.54003906 8.88647461 C-11.34038753 16.2887291 -11.00241856 24.04705407 -11.0625 31.625 C-11.09069512 33.41474201 -11.12062743 35.20445755 -11.15234375 36.99414062 C-11.22901918 41.35051589 -11.26992676 45.70512877 -11.3125 50.0625 C-16.5925 50.0625 -21.8725 50.0625 -27.3125 50.0625 C-27.3125 49.7325 -27.3125 49.4025 -27.3125 49.0625 C-22.3625 49.0625 -17.4125 49.0625 -12.3125 49.0625 C-12.33344727 47.89267578 -12.35439453 46.72285156 -12.37597656 45.51757812 C-12.44874856 41.1492146 -12.49443422 36.78090395 -12.53222656 32.41210938 C-12.55225767 30.52660084 -12.57949073 28.64115377 -12.61425781 26.75585938 C-12.66315272 24.03500138 -12.68555382 21.31496944 -12.703125 18.59375 C-12.72377014 17.76008911 -12.74441528 16.92642822 -12.76568604 16.06750488 C-12.76783894 10.36518982 -11.70436269 5.75554568 -8.3125 1.0625 C-5.39542464 -0.16574226 -3.16987065 0.05980888 0 0 Z " fill="#6ACE8F" transform="translate(925.3125,157.9375)"/>
<path d="M0 0 C0.33 0.66 0.66 1.32 1 2 C0.690625 2.66 0.38125 3.32 0.0625 4 C-1.46734296 8.31955661 -1.15861631 12.46181115 -1 17 C-0.34 16.67 0.32 16.34 1 16 C1 16.99 1 17.98 1 19 C1.99 18.67 2.98 18.34 4 18 C6.2636564 19.40445835 8.0208685 21.1967913 10 23 C9.67 23.99 9.34 24.98 9 26 C6.69 24.35 4.38 22.7 2 21 C1.34 22.32 0.68 23.64 0 25 C-3.80311752 18.88194139 -4.65331122 14.13105803 -4 7 C-1.97058824 1.97058824 -1.97058824 1.97058824 0 0 Z " fill="#64D78F" transform="translate(563,176)"/>
<path d="M0 0 C0.99 0 1.98 0 3 0 C3 11.88 3 23.76 3 36 C5.2608746 36.1490712 5.2608746 36.1490712 8 34.5 C11 33 11 33 13 33 C13 33.66 13 34.32 13 35 C6.56097561 41 6.56097561 41 3 41 C1.40800476 39.73930359 1.40800476 39.73930359 0 38 C-0.26167679 35.05815259 -0.34873921 32.3326279 -0.29296875 29.39453125 C-0.28872391 28.55532639 -0.28447906 27.71612152 -0.28010559 26.85148621 C-0.26331464 24.17149755 -0.2256623 21.4922613 -0.1875 18.8125 C-0.17245367 16.99545357 -0.15876518 15.17839535 -0.14648438 13.36132812 C-0.11340982 8.90726224 -0.06162513 4.45375868 0 0 Z " fill="#6DD190" transform="translate(659,108)"/>
<path d="M0 0 C3.17718423 1.58859211 4.47622138 2.74632618 5.84375 6.01953125 C7.46469987 11.68320727 6.82283879 14.89717604 4 20 C3.01 20 2.02 20 1 20 C1.474375 19.525625 1.94875 19.05125 2.4375 18.5625 C4.68076096 14.88355203 4.73739578 11.2378888 5 7 C3.68 7 2.36 7 1 7 C1 5.35 1 3.7 1 2 C-1.97 1.67 -4.94 1.34 -8 1 C-8.33 2.65 -8.66 4.3 -9 6 C-9.66 5.67 -10.32 5.34 -11 5 C-11 4.34 -11 3.68 -11 3 C-12.32 2.67 -13.64 2.34 -15 2 C-10.25947128 -1.9504406 -5.68756753 -1.33770092 0 0 Z " fill="#6DD394" transform="translate(454,110)"/>
<path d="M0 0 C0.99 0 1.98 0 3 0 C3 0.99 3 1.98 3 3 C5.97 3.495 5.97 3.495 9 4 C9 4.33 9 4.66 9 5 C8.21496094 5.09796875 7.42992187 5.1959375 6.62109375 5.296875 C-0.52172822 6.24443902 -0.52172822 6.24443902 -7 9.1875 C-10 11 -10 11 -12.25 11.0625 C-14.74621121 9.5469432 -15.68843142 7.55755872 -17 5 C-15.98679687 5.14308594 -15.98679687 5.14308594 -14.953125 5.2890625 C-14.06109375 5.39992187 -13.1690625 5.51078125 -12.25 5.625 C-10.92742188 5.79902344 -10.92742188 5.79902344 -9.578125 5.9765625 C-6.72923924 6.00246146 -5.4529357 5.35014528 -3 4 C-2.01 4 -1.02 4 0 4 C0 2.68 0 1.36 0 0 Z " fill="#6DD992" transform="translate(585,152)"/>
<path d="M0 0 C0.66 0.33 1.32 0.66 2 1 C4.92523605 11.32455761 4.05088088 22.22978172 3.625 32.8125 C3.56659486 34.48759176 3.50929596 36.16272246 3.453125 37.83789062 C3.31480261 41.89248805 3.16162546 45.94626738 3 50 C-0.3 50 -3.6 50 -7 50 C-7 49.67 -7 49.34 -7 49 C-4.03 49 -1.06 49 2 49 C1.90631785 43.10983001 1.80019037 37.2200639 1.68261719 31.33032227 C1.64437783 29.32745476 1.60951619 27.32451975 1.578125 25.3215332 C1.53236504 22.43937083 1.47438846 19.55767106 1.4140625 16.67578125 C1.40251129 15.78288895 1.39096008 14.88999664 1.37905884 13.970047 C1.27278265 9.47453213 0.87431211 6.15370454 -1 2 C-0.67 1.34 -0.34 0.68 0 0 Z " fill="#67D18A" transform="translate(619,158)"/>
<path d="M0 0 C3.875 1.75 3.875 1.75 5 4 C6.32 4.66 7.64 5.32 9 6 C8.67 8.97 8.34 11.94 8 15 C4 14 4 14 2 11 C1.8046875 8.73828125 1.8046875 8.73828125 1.875 6.3125 C1.89304687 5.50425781 1.91109375 4.69601563 1.9296875 3.86328125 C1.95289063 3.24839844 1.97609375 2.63351563 2 2 C1.34 2 0.68 2 0 2 C0 1.34 0 0.68 0 0 Z " fill="#46DE7E" transform="translate(866,112)"/>
<path d="M0 0 C0 0.33 0 0.66 0 1 C-1.2065625 1.185625 -1.2065625 1.185625 -2.4375 1.375 C-3.283125 1.58125 -4.12875 1.7875 -5 2 C-5.33 2.66 -5.66 3.32 -6 4 C-7.65 4 -9.3 4 -11 4 C-10.67 4.99 -10.34 5.98 -10 7 C-9.87218214 9.67394964 -9.95608129 12.32095857 -10 15 C-10.99 15.495 -10.99 15.495 -12 16 C-12 14.35 -12 12.7 -12 11 C-14.51083114 12.25541557 -14.87125446 13.50063488 -16 16 C-17.33566756 12.96439191 -16.91578966 11.73801229 -15.875 8.5 C-12.12841123 1.50636763 -7.6393944 -0.16976432 0 0 Z " fill="#61D98A" transform="translate(866,109)"/>
<path d="M0 0 C0.66 0.33 1.32 0.66 2 1 C1.01 2.485 1.01 2.485 0 4 C0.08571661 6.09291157 0.08571661 6.09291157 1 8 C4.71524288 10.47682859 7.69638294 10.43538538 12 10 C14.88214887 9.11785113 14.88214887 9.11785113 17 8 C17 8.66 17 9.32 17 10 C16.34 10 15.68 10 15 10 C14.34 11.65 13.68 13.3 13 15 C6.66435132 14.73039793 1.59582883 12.45775672 -3 8 C-3.7578125 5.296875 -3.7578125 5.296875 -4 3 C-2.68 2.01 -1.36 1.02 0 0 Z " fill="#6AD591" transform="translate(581,182)"/>
<path d="M0 0 C1.32 1.32 2.64 2.64 4 4 C3.29591711 6.15419405 2.56087777 8.29829093 1.8125 10.4375 C1.20341797 12.22994141 1.20341797 12.22994141 0.58203125 14.05859375 C-1 17 -1 17 -3.67578125 17.91015625 C-4.82626953 17.95462891 -4.82626953 17.95462891 -6 18 C-5.195625 17.195625 -4.39125 16.39125 -3.5625 15.5625 C-0.31186942 11.73336737 -0.11926137 7.8788744 0 3 C-0.54269531 3.27714844 -1.08539062 3.55429688 -1.64453125 3.83984375 C-2.35996094 4.20207031 -3.07539062 4.56429687 -3.8125 4.9375 C-4.52019531 5.29714844 -5.22789062 5.65679687 -5.95703125 6.02734375 C-10.02934943 7.9661721 -13.21935183 8.10673909 -17.6875 8.0625 C-19.45673828 8.04896484 -19.45673828 8.04896484 -21.26171875 8.03515625 C-22.16535156 8.02355469 -23.06898438 8.01195312 -24 8 C-24 7.67 -24 7.34 -24 7 C-22.90945313 6.99613281 -22.90945313 6.99613281 -21.796875 6.9921875 C-13.32486827 6.66634109 -7.29108993 4.22728086 0 0 Z " fill="#75D997" transform="translate(522,200)"/>
<path d="M0 0 C-0.9075 -0.0825 -1.815 -0.165 -2.75 -0.25 C-6.73735823 0.05671986 -7.32027434 1.23095015 -10 4 C-12.1875 3.875 -12.1875 3.875 -14 3 C-14.33 2.34 -14.66 1.68 -15 1 C-13.35 0.67 -11.7 0.34 -10 0 C-12.22889496 -0.05428973 -14.45817471 -0.09292338 -16.6875 -0.125 C-17.92886719 -0.14820313 -19.17023437 -0.17140625 -20.44921875 -0.1953125 C-23.85868966 -0.00777285 -25.89405032 0.74068821 -29 2 C-31.3125 1.625 -31.3125 1.625 -33 1 C-23.42159377 -2.93398827 -9.21609701 -6.14406468 0 0 Z " fill="#65D68E" transform="translate(606,142)"/>
<path d="M0 0 C3 2 3 2 3.50390625 4.1015625 C3.66823528 11.178666 1.83270659 14.90860838 -3 20 C-3.74830078 20.82177734 -3.74830078 20.82177734 -4.51171875 21.66015625 C-7.57431143 24.41729349 -11.05187164 24.20431853 -14.9921875 24.16796875 C-17.58819391 23.95079312 -19.68055553 23.15972223 -22 22 C-21.67 21.34 -21.34 20.68 -21 20 C-20.01 20.5259375 -20.01 20.5259375 -19 21.0625 C-15.11406655 22.2768542 -11.85199662 22.16841385 -8 21 C-3.75187291 18.58183535 -1.45585412 15.64390502 0 11 C0.23971089 8.10348171 0.23971089 8.10348171 0.125 5.1875 C0.10695313 4.21167969 0.08890625 3.23585937 0.0703125 2.23046875 C0.04710937 1.49441406 0.02390625 0.75835937 0 0 Z " fill="#73D595" transform="translate(523,167)"/>
<path d="M0 0 C2.81307141 3.17999377 3.81878333 5.74140837 4 10 C2.6875 11.875 2.6875 11.875 1 13 C0.34 13 -0.32 13 -1 13 C-1.268125 13.598125 -1.53625 14.19625 -1.8125 14.8125 C-3.34776584 17.64062129 -4.70465068 19.49111277 -7.75 20.6875 C-10.84379905 21.11719431 -13.88165003 21.05996827 -17 21 C-17 20.67 -17 20.34 -17 20 C-16.40832031 19.91363281 -15.81664062 19.82726562 -15.20703125 19.73828125 C-9.66159044 18.75222407 -6.61091642 17.5957118 -3 13 C-1.28183699 10.05633721 -0.6737064 7.63533922 -0.375 4.25 C-0.30023437 3.45078125 -0.22546875 2.6515625 -0.1484375 1.828125 C-0.09945312 1.22484375 -0.05046875 0.6215625 0 0 Z " fill="#69D590" transform="translate(689,170)"/>
<path d="M0 0 C2.76276177 0.52268466 5.3260876 1.10869587 8 2 C7.48050781 2.29132813 6.96101563 2.58265625 6.42578125 2.8828125 C-1.37595244 7.46867445 -5.20112677 12.45607119 -8 21 C-8.33 21 -8.66 21 -9 21 C-9 18 -9 15 -9 12 C-8.34 11.67 -7.68 11.34 -7 11 C-5.86649466 8.98330173 -5.86649466 8.98330173 -5 7 C-4.01 7 -3.02 7 -2 7 C-1.855625 6.21625 -1.71125 5.4325 -1.5625 4.625 C-1 2 -1 2 0 0 Z " fill="#61DB8F" transform="translate(366,133)"/>
<path d="M0 0 C2 3 2 3 2 5 C5.72149979 6.24049993 9.13412395 6.54809207 13 6 C16.14344435 4.25364203 18.46862726 2.53137274 21 0 C20.21302675 3.41021743 19.12880057 6.68885166 18 10 C17.01 10 16.02 10 15 10 C14.67 9.34 14.34 8.68 14 8 C13.67 8.33 13.34 8.66 13 9 C11.48071962 9.07179964 9.95832518 9.08392007 8.4375 9.0625 C7.61121094 9.05347656 6.78492188 9.04445312 5.93359375 9.03515625 C5.29550781 9.02355469 4.65742187 9.01195312 4 9 C3.67 8.01 3.34 7.02 3 6 C2.34 6 1.68 6 1 6 C0.67 4.02 0.34 2.04 0 0 Z " fill="#69D78D" transform="translate(793,186)"/>
<path d="M0 0 C0.33 1.32 0.66 2.64 1 4 C2.32 4.33 3.64 4.66 5 5 C4.67 5.66 4.34 6.32 4 7 C-3.07316767 9.09219885 -10.61694152 10.83581794 -18 10 C-19.70703125 8.4765625 -19.70703125 8.4765625 -21 7 C-20.32195312 7.01160156 -19.64390625 7.02320313 -18.9453125 7.03515625 C-12.55795793 7.09708351 -6.34030324 6.77018868 0 6 C0 4.02 0 2.04 0 0 Z " fill="#6BD78F" transform="translate(396,181)"/>
<path d="M0 0 C0.66 0 1.32 0 2 0 C1.896875 0.969375 1.79375 1.93875 1.6875 2.9375 C1.6875 8.01372221 4.04158949 11.99415226 7 16 C9.59808052 18.06808844 9.59808052 18.06808844 12 19 C11.67 19.66 11.34 20.32 11 21 C9.02 20.34 7.04 19.68 5 19 C5 19.99 5 20.98 5 22 C4.01 22 3.02 22 2 22 C2.66 19.36 3.32 16.72 4 14 C3.34 14 2.68 14 2 14 C2 13.01 2 12.02 2 11 C1.34 11 0.68 11 0 11 C0 7.37 0 3.74 0 0 Z " fill="#67D88F" transform="translate(659,170)"/>
<path d="M0 0 C2.3125 -0.25 2.3125 -0.25 5 0 C6.8125 2 6.8125 2 8 4 C5.54953627 7.13659357 4.47006326 7.94227293 0.4375 8.4375 C-3 8 -3 8 -4.9375 6.5 C-5.4634375 5.7575 -5.4634375 5.7575 -6 5 C-5.67 4.01 -5.34 3.02 -5 2 C-4.01 3.485 -4.01 3.485 -3 5 C-0.43717258 5.72965366 -0.43717258 5.72965366 2 6 C1.34 5.34 0.68 4.68 0 4 C0 2.68 0 1.36 0 0 Z " fill="#52DD81" transform="translate(242,230)"/>
<path d="M0 0 C1 3 1 3 0 8 C-6.6 8 -13.2 8 -20 8 C-20 7.01 -20 6.02 -20 5 C-19.01 5.33 -18.02 5.66 -17 6 C-14.42734182 6.07029121 -11.88358569 6.09370832 -9.3125 6.0625 C-8.61060547 6.05798828 -7.90871094 6.05347656 -7.18554688 6.04882812 C-5.45699462 6.03706927 -3.72848635 6.01913454 -2 6 C-1.34 4.02 -0.68 2.04 0 0 Z " fill="#68DE8C" transform="translate(835,200)"/>
<path d="M0 0 C4.53060226 3.32244166 7.80420221 6.29696436 9 12 C9.22637882 16.014451 9.17802649 19.9845136 9 24 C8.67 24 8.34 24 8 24 C7.67 21.36 7.34 18.72 7 16 C6.34 16 5.68 16 5 16 C5.020625 14.88625 5.04125 13.7725 5.0625 12.625 C5.26380718 9.16784079 5.26380718 9.16784079 4 7 C1.98330173 5.86649466 1.98330173 5.86649466 0 5 C0 3.35 0 1.7 0 0 Z " fill="#64D88D" transform="translate(947,144)"/>
<path d="M0 0 C0.7734375 0.433125 0.7734375 0.433125 1.5625 0.875 C4.62356725 2.28780027 7.74944918 3.1248517 11 4 C11 4.33 11 4.66 11 5 C16.61 5.33 22.22 5.66 28 6 C23.28976257 9.14015829 18.51376391 8.54869981 13 8 C7.32991309 6.5215096 3.28691035 4.99862405 0 0 Z " fill="#6DD591" transform="translate(564,201)"/>
<path d="M0 0 C2.97 0.99 5.94 1.98 9 3 C9.33 2.34 9.66 1.68 10 1 C10.99 1.33 11.98 1.66 13 2 C13 3.32 13 4.64 13 6 C16.96 6 20.92 6 25 6 C25 6.33 25 6.66 25 7 C7.65957447 7.95744681 7.65957447 7.95744681 0 2 C0 1.34 0 0.68 0 0 Z " fill="#63D98C" transform="translate(660,201)"/>
<path d="M0 0 C1.32 0 2.64 0 4 0 C4 0.66 4 1.32 4 2 C5.65 1.67 7.3 1.34 9 1 C8 3 8 3 5.328125 4.08203125 C-3.28390172 6.45741421 -12.21906184 6.2883995 -21 5 C-21 4.67 -21 4.34 -21 4 C-11.1 3.505 -11.1 3.505 -1 3 C-0.67 2.01 -0.34 1.02 0 0 Z " fill="#73D394" transform="translate(517,233)"/>
<path d="M0 0 C0.66 0.33 1.32 0.66 2 1 C1 3 1 3 -1.5625 4.5 C-2.366875 4.995 -3.17125 5.49 -4 6 C-4 6.66 -4 7.32 -4 8 C-3.01 8 -2.02 8 -1 8 C-1.375 9.9375 -1.375 9.9375 -2 12 C-2.99 12.495 -2.99 12.495 -4 13 C-4.33 13.99 -4.66 14.98 -5 16 C-5.66 16 -6.32 16 -7 16 C-8.62031425 11.94921438 -7.58806476 8.93563876 -6 5 C-4.12859402 3.01442336 -2.2350087 1.60337581 0 0 Z " fill="#60DA8B" transform="translate(487,144)"/>
<path d="M0 0 C2.02237052 0.95394836 4.0282696 1.94535351 6 3 C6 3.66 6 4.32 6 5 C1.545 5.495 1.545 5.495 -3 6 C-2.34 4.35 -1.68 2.7 -1 1 C-2.98 1.33 -4.96 1.66 -7 2 C-7 1.34 -7 0.68 -7 0 C-4.23868631 -1.38065685 -2.96128936 -0.80762437 0 0 Z " fill="#41E07C" transform="translate(484,225)"/>
<path d="M0 0 C0 0.99 0 1.98 0 3 C2.96175123 2.38722388 4.38058783 1.74627478 7 0 C8.32 0 9.64 0 11 0 C11 0.66 11 1.32 11 2 C10.34 2 9.68 2 9 2 C9 2.66 9 3.32 9 4 C5.92805092 5.53597454 3.39755707 5.2265038 0 5 C-3.4375 3.5 -3.4375 3.5 -6 2 C-2.25 0 -2.25 0 0 0 Z " fill="#51DC80" transform="translate(358,200)"/>
<path d="M0 0 C0.825 0.165 1.65 0.33 2.5 0.5 C5.26903622 0.8955766 7.4967553 0.98553172 10.25 0.875 C12.10625 0.936875 12.10625 0.936875 14 1 C14.66 1.99 15.32 2.98 16 4 C15.29875 3.97679687 14.5975 3.95359375 13.875 3.9296875 C7.84441138 3.81497522 2.77556127 4.25643433 -3 6 C-2.505 5.566875 -2.01 5.13375 -1.5 4.6875 C0.33218192 3.00259517 0.33218192 3.00259517 0 0 Z " fill="#63D990" transform="translate(794,154)"/>
<path d="M0 0 C0.66 0.33 1.32 0.66 2 1 C1.67 1.66 1.34 2.32 1 3 C1.66 3.33 2.32 3.66 3 4 C2.01 4.33 1.02 4.66 0 5 C-0.66 5.66 -1.32 6.32 -2 7 C-5.625 6.625 -5.625 6.625 -9 6 C-9 5.34 -9 4.68 -9 4 C-7.88625 3.525625 -6.7725 3.05125 -5.625 2.5625 C-3.73289006 1.74693537 -1.84287291 0.92143645 0 0 Z " fill="#5BDD8C" transform="translate(921,142)"/>
<path d="M0 0 C5.03985731 0.44469329 7.37634988 2.71343362 11 6 C9 7 9 7 7.0625 6.375 C6.381875 6.25125 5.70125 6.1275 5 6 C3.22809091 7.35444301 3.22809091 7.35444301 2 9 C1.34 8.67 0.68 8.34 0 8 C1 5 1 5 3 3 C2.01 2.01 1.02 1.02 0 0 Z " fill="#66D68D" transform="translate(691,142)"/>
<path d="M0 0 C5.59448174 0.01064475 9.93769383 0.45895492 14.8125 3.3125 C11.57028445 4.39323852 9.20847063 4.52926408 5.8125 4.3125 C5.1525 3.6525 4.4925 2.9925 3.8125 2.3125 C0.68435486 2.06889927 0.68435486 2.06889927 -2.8125 2.1875 C-4.59527344 2.21457031 -4.59527344 2.21457031 -6.4140625 2.2421875 C-7.78691406 2.27699219 -7.78691406 2.27699219 -9.1875 2.3125 C-6.27872023 -0.59627977 -4.0503626 0.01199515 0 0 Z " fill="#6BD492" transform="translate(932.1875,139.6875)"/>
<path d="M0 0 C1.65 0 3.3 0 5 0 C4.67 1.98 4.34 3.96 4 6 C2.02 6.33 0.04 6.66 -2 7 C-1.34 4.69 -0.68 2.38 0 0 Z " fill="#4ADD83" transform="translate(162,230)"/>
<path d="M0 0 C4.62 0 9.24 0 14 0 C16.26609984 4.53219967 15.92735976 6.17772925 15 11 C13.68 10.67 12.36 10.34 11 10 C11.33 8.88625 11.66 7.7725 12 6.625 C13.088643 3.30540283 13.088643 3.30540283 13 1 C8.38 1.33 3.76 1.66 -1 2 C-0.67 1.34 -0.34 0.68 0 0 Z " fill="#6AD591" transform="translate(587,179)"/>
<path d="M0 0 C3.72773314 0.21301332 5.00099259 1.00090436 7.8125 3.5625 C10.72628674 7.34675763 10.54220278 10.35254758 10 15 C9.34 15.66 8.68 16.32 8 17 C8 14.03 8 11.06 8 8 C6.68 7.34 5.36 6.68 4 6 C3.27840576 4.35636866 2.60648579 2.68949614 2 1 C1.34 0.67 0.68 0.34 0 0 Z " fill="#6DD190" transform="translate(866,110)"/>
<path d="M0 0 C-1.24663331 0.50833591 -2.49749387 1.00631145 -3.75 1.5 C-4.44609375 1.7784375 -5.1421875 2.056875 -5.859375 2.34375 C-8 3 -8 3 -12 3 C-12 3.66 -12 4.32 -12 5 C-12.99 5 -13.98 5 -15 5 C-15 5.66 -15 6.32 -15 7 C-16.65 7.33 -18.3 7.66 -20 8 C-15.50888466 2.42482233 -7.26502477 -2.63250309 0 0 Z " fill="#70D595" transform="translate(797,168)"/>
<path d="M0 0 C7.62097735 6.12991657 7.62097735 6.12991657 8.4140625 10.04296875 C8.609375 12.02864583 8.8046875 14.01432292 9 16 C8.34 16 7.68 16 7 16 C7 14.02 7 12.04 7 10 C6.34 10 5.68 10 5 10 C4.67 10.66 4.34 11.32 4 12 C3 9 3 9 3 5 C2.01 4.34 1.02 3.68 0 3 C0 2.01 0 1.02 0 0 Z " fill="#61D68C" transform="translate(824,144)"/>
<path d="M0 0 C0.33 0.66 0.66 1.32 1 2 C-0.65 2 -2.3 2 -4 2 C-4.33 3.65 -4.66 5.3 -5 7 C-5.66 6.67 -6.32 6.34 -7 6 C-7 5.34 -7 4.68 -7 4 C-8.32 3.67 -9.64 3.34 -11 3 C-7.16674383 0.29417212 -4.67461851 -0.32613618 0 0 Z " fill="#66D58C" transform="translate(450,109)"/>
<path d="M0 0 C0.33 0 0.66 0 1 0 C1.12375 0.804375 1.2475 1.60875 1.375 2.4375 C1.58125 3.283125 1.7875 4.12875 2 5 C5.80955639 6.90477819 9.40716321 6.17565535 13.375 5 C14.24125 4.67 15.1075 4.34 16 4 C16 5.32 16 6.64 16 8 C13.70858714 8.05384521 11.41681812 8.09272087 9.125 8.125 C7.21074219 8.15980469 7.21074219 8.15980469 5.2578125 8.1953125 C2 8 2 8 0 6 C-0.125 2.875 -0.125 2.875 0 0 Z " fill="#5ACB9C" transform="translate(380,164)"/>
<path d="M0 0 C1.875 0.125 1.875 0.125 4 1 C5.25 4.0625 5.25 4.0625 6 7 C4 9 4 9 0.0859375 9.1953125 C-1.48449351 9.18200376 -3.05486221 9.15813602 -4.625 9.125 C-5.42679688 9.11597656 -6.22859375 9.10695312 -7.0546875 9.09765625 C-9.03658523 9.07406223 -11.01832981 9.03819065 -13 9 C-13 8.67 -13 8.34 -13 8 C-5.08 7.505 -5.08 7.505 3 7 C1.59624169 3.45678112 1.59624169 3.45678112 0 0 Z " fill="#77DA9A" transform="translate(810,158)"/>
<path d="M0 0 C4.03722478 0.62111151 6.84679705 2.46372806 10 5 C11.375 8.25 11.375 8.25 12 11 C11.34 11 10.68 11 10 11 C9.71125 10.360625 9.4225 9.72125 9.125 9.0625 C8.17176549 6.84793921 8.17176549 6.84793921 6 6 C5.67 6.66 5.34 7.32 5 8 C4.67 7.01 4.34 6.02 4 5 C4.33 4.34 4.66 3.68 5 3 C3.68 3 2.36 3 1 3 C0.67 2.01 0.34 1.02 0 0 Z " fill="#73DA99" transform="translate(606,142)"/>
<path d="M0 0 C0 0.99 0 1.98 0 3 C-3.3030579 5.89017566 -5.90060445 7.27182091 -10.25 7.375 C-14 7 -14 7 -16 5 C-12.37 5 -8.74 5 -5 5 C-4.67 4.01 -4.34 3.02 -4 2 C-1.9375 0.8125 -1.9375 0.8125 0 0 Z " fill="#68D595" transform="translate(873,127)"/>
<path d="M0 0 C-0.33 0.66 -0.66 1.32 -1 2 C-0.01 2 0.98 2 2 2 C2 2.66 2 3.32 2 4 C-1.63 3.67 -5.26 3.34 -9 3 C-4.61538462 -1.38461538 -4.61538462 -1.38461538 0 0 Z " fill="#5ED988" transform="translate(361,118)"/>
<path d="M0 0 C2 2 2 2 2 5 C0.68 4.34 -0.64 3.68 -2 3 C-2 2.01 -2 1.02 -2 0 C-6.82442184 1.26946514 -6.82442184 1.26946514 -10 5 C-10.66 4.67 -11.32 4.34 -12 4 C-8.11662507 -1.22246973 -6.13185799 -2.98731543 0 0 Z " fill="#75D59A" transform="translate(166,185)"/>
<path d="M0 0 C0.66 0.33 1.32 0.66 2 1 C2 6.28 2 11.56 2 17 C1.67 16.34 1.34 15.68 1 15 C0.34 15 -0.32 15 -1 15 C-1.02715383 13.25008666 -1.04646551 11.50005055 -1.0625 9.75 C-1.07410156 8.77546875 -1.08570313 7.8009375 -1.09765625 6.796875 C-1.01195577 4.34241322 -0.70706066 2.33831086 0 0 Z " fill="#6AD68E" transform="translate(356,155)"/>
<path d="M0 0 C2.64 0.99 5.28 1.98 8 3 C7.34 4.98 6.68 6.96 6 9 C5.67 9 5.34 9 5 9 C5 7.02 5 5.04 5 3 C0.38 3.33 -4.24 3.66 -9 4 C-9 3.34 -9 2.68 -9 2 C-6.03 2 -3.06 2 0 2 C0 1.34 0 0.68 0 0 Z " fill="#69DC91" transform="translate(809,177)"/>
<path d="M0 0 C0.66 0.66 1.32 1.32 2 2 C1.70131344 4.00546689 1.36628677 6.00577205 1 8 C1.33 8.99 1.66 9.98 2 11 C1.34 11 0.68 11 0 11 C-0.66 9.35 -1.32 7.7 -2 6 C-2.66 6 -3.32 6 -4 6 C-4 4.68 -4 3.36 -4 2 C-3.34 2 -2.68 2 -2 2 C-1.67 2.66 -1.34 3.32 -1 4 C-0.67 2.68 -0.34 1.36 0 0 Z " fill="#56DB86" transform="translate(618,153)"/>
<path d="M0 0 C1.875 0.3125 1.875 0.3125 4 1 C4.66 1.99 5.32 2.98 6 4 C5.67 4.99 5.34 5.98 5 7 C2.36 7.33 -0.28 7.66 -3 8 C-2.67 7.01 -2.34 6.02 -2 5 C-0.35 5.33 1.3 5.66 3 6 C3 5.01 3 4.02 3 3 C2.34 3 1.68 3 1 3 C0.67 2.01 0.34 1.02 0 0 Z " fill="#3CDE7F" transform="translate(806,197)"/>
<path d="M0 0 C1.39195915 4.17587745 -0.17676781 6.13474776 -2 10 C-3.32 9.34 -4.64 8.68 -6 8 C-4 5.33333333 -2 2.66666667 0 0 Z " fill="#3ADF79" transform="translate(569,174)"/>
<path d="M0 0 C0.33 0.66 0.66 1.32 1 2 C0.01 2.99 -0.98 3.98 -2 5 C-1.01 5.33 -0.02 5.66 1 6 C1 6.66 1 7.32 1 8 C1.99 8 2.98 8 4 8 C3.67 8.66 3.34 9.32 3 10 C-0.465 8.02 -0.465 8.02 -4 6 C-4 4.35 -4 2.7 -4 1 C-2.68 0.67 -1.36 0.34 0 0 Z " fill="#57DB84" transform="translate(664,195)"/>
<path d="M0 0 C0.33 0 0.66 0 1 0 C1 1.98 1 3.96 1 6 C0.34 6 -0.32 6 -1 6 C-0.67 7.32 -0.34 8.64 0 10 C-0.66 10 -1.32 10 -2 10 C-2.33 11.98 -2.66 13.96 -3 16 C-3.66 15.67 -4.32 15.34 -5 15 C-4.35631658 12.87434778 -3.70998756 10.74949654 -3.0625 8.625 C-2.52302734 6.84996094 -2.52302734 6.84996094 -1.97265625 5.0390625 C-1 2 -1 2 0 0 Z " fill="#71D697" transform="translate(336,138)"/>
<path d="M0 0 C0.66 0.33 1.32 0.66 2 1 C-5.11389522 8.66742597 -5.11389522 8.66742597 -10 10 C-10 9.01 -10 8.02 -10 7 C-9.0925 6.5875 -8.185 6.175 -7.25 5.75 C-4.20334382 4.10949282 -2.28873194 2.55281639 0 0 Z " fill="#70D794" transform="translate(538,224)"/>
<path d="M0 0 C0.66 0.66 1.32 1.32 2 2 C1.625 4.625 1.625 4.625 1 7 C0.67 6.34 0.34 5.68 0 5 C-3.12498166 4.6626154 -3.12498166 4.6626154 -5.1875 7 C-5.785625 7.66 -6.38375 8.32 -7 9 C-5.92598892 6.08482708 -5.22189824 4.22189824 -3 2 C-2.01 2 -1.02 2 0 2 C0 1.34 0 0.68 0 0 Z " fill="#5FDA8F" transform="translate(484,214)"/>
<path d="M0 0 C0 0.33 0 0.66 0 1 C2.97 1.33 5.94 1.66 9 2 C9 2.33 9 2.66 9 3 C-2.52164009 3.3690205 -2.52164009 3.3690205 -8 1 C-8 0.67 -8 0.34 -8 0 C-4.71303767 -0.79953138 -3.28976808 -1.09658936 0 0 Z " fill="#65D98F" transform="translate(368,205)"/>
<path d="M0 0 C1.485 0.99 1.485 0.99 3 2 C3.3984375 4.27734375 3.3984375 4.27734375 3.375 6.9375 C3.38273438 7.81277344 3.39046875 8.68804687 3.3984375 9.58984375 C3 12 3 12 0 15 C0 10.05 0 5.1 0 0 Z " fill="#6DD28D" transform="translate(523,167)"/>
<path d="M0 0 C0.99 0 1.98 0 3 0 C3 0.99 3 1.98 3 3 C5.97 3.495 5.97 3.495 9 4 C9 4.33 9 4.66 9 5 C5.04 5 1.08 5 -3 5 C-2.01 4.67 -1.02 4.34 0 4 C0 2.68 0 1.36 0 0 Z " fill="#5DD78B" transform="translate(585,152)"/>
<path d="M0 0 C4.95 0.99 4.95 0.99 10 2 C10 2.66 10 3.32 10 4 C7.03 4 4.06 4 1 4 C0.67 2.68 0.34 1.36 0 0 Z " fill="#36E07D" transform="translate(856,128)"/>
<path d="M0 0 C1.0828125 1.0209375 1.0828125 1.0209375 2.1875 2.0625 C4.79133645 4.2618152 4.79133645 4.2618152 7.625 3.9375 C10.0886729 2.96499754 11.32731628 2.02482766 13 0 C13 3 13 3 11.9375 4.6875 C8.93326383 6.72262773 6.52749489 6.37794588 3 6 C1.0625 4.6875 1.0625 4.6875 0 3 C0 2.01 0 1.02 0 0 Z " fill="#72D698" transform="translate(236,232)"/>
<path d="M0 0 C1.98 0.99 1.98 0.99 4 2 C4 2.99 4 3.98 4 5 C4.66 5 5.32 5 6 5 C5.67 6.65 5.34 8.3 5 10 C4.67 8.68 4.34 7.36 4 6 C3.34 6 2.68 6 2 6 C2 5.34 2 4.68 2 4 C1.34 4 0.68 4 0 4 C0 2.68 0 1.36 0 0 Z " fill="#41DF7A" transform="translate(612,148)"/>
<path d="M0 0 C0.28875 0.61875 0.5775 1.2375 0.875 1.875 C1.93720042 4.13325765 1.93720042 4.13325765 4 6 C3.01 7.485 3.01 7.485 2 9 C0.35 7.35 -1.3 5.7 -3 4 C-2.67 3.01 -2.34 2.02 -2 1 C-1.34 0.67 -0.68 0.34 0 0 Z " fill="#6BD793" transform="translate(565,148)"/>
<path d="M0 0 C4.875 4.75 4.875 4.75 6 7 C5.72057545 8.67654729 5.39171753 10.34608154 5 12 C4.34 12 3.68 12 3 12 C3 9.36 3 6.72 3 4 C2.34 4 1.68 4 1 4 C0.67 2.68 0.34 1.36 0 0 Z " fill="#69D08C" transform="translate(204,116)"/>
<path d="M0 0 C1.32 0 2.64 0 4 0 C4 0.66 4 1.32 4 2 C5.65 1.67 7.3 1.34 9 1 C8.67 1.66 8.34 2.32 8 3 C5.6859378 3.73075648 3.35171131 4.40138258 1 5 C0.34 4.34 -0.32 3.68 -1 3 C-0.67 2.01 -0.34 1.02 0 0 Z " fill="#5EDC91" transform="translate(517,233)"/>
<path d="M0 0 C0.33 0.99 0.66 1.98 1 3 C1.99 3 2.98 3 4 3 C4 4.32 4 5.64 4 7 C3.34 7 2.68 7 2 7 C1.67 7.99 1.34 8.98 1 10 C-0.60725635 6.78548731 -0.05748185 3.56387464 0 0 Z " fill="#58DC84" transform="translate(236,224)"/>
<path d="M0 0 C0.33 0.66 0.66 1.32 1 2 C0.34 2 -0.32 2 -1 2 C-1.66 3.65 -2.32 5.3 -3 7 C-4.65 7 -6.3 7 -8 7 C-8.33 6.34 -8.66 5.68 -9 5 C-8.401875 4.896875 -7.80375 4.79375 -7.1875 4.6875 C-4.69130983 3.90298309 -3.74268135 2.90110692 -2 1 C-1.34 0.67 -0.68 0.34 0 0 Z " fill="#5FD989" transform="translate(597,190)"/>
<path d="M0 0 C0.66 0.99 1.32 1.98 2 3 C2.66 2.67 3.32 2.34 4 2 C4 5 4 8 4 11 C3.13341385 9.73760288 2.28207941 8.46472499 1.4375 7.1875 C0.72400391 6.12595703 0.72400391 6.12595703 -0.00390625 5.04296875 C-1 3 -1 3 0 0 Z " fill="#67D691" transform="translate(336,179)"/>
<path d="M0 0 C0.33 1.32 0.66 2.64 1 4 C-1.97 6.475 -1.97 6.475 -5 9 C-4.7452486 7.68428397 -4.47065859 6.37239624 -4.1875 5.0625 C-4.03667969 4.33160156 -3.88585937 3.60070312 -3.73046875 2.84765625 C-3.48941406 2.23792969 -3.24835937 1.62820312 -3 1 C-2.01 0.67 -1.02 0.34 0 0 Z " fill="#59DA87" transform="translate(779,175)"/>
<path d="M0 0 C0.66 0.33 1.32 0.66 2 1 C0.7934375 2.11375 0.7934375 2.11375 -0.4375 3.25 C-2.76988591 5.75304829 -3.63534394 6.7180955 -4 10 C-4.99 9.01 -5.98 8.02 -7 7 C-5.66667905 3.00003714 -3.5042173 2.16217663 0 0 Z " fill="#7DD9A2" transform="translate(782,145)"/>
<path d="M0 0 C2 2 2 2 2 4 C1.360625 4.28875 0.72125 4.5775 0.0625 4.875 C-2.15206079 5.82823451 -2.15206079 5.82823451 -3 8 C-3.99 8 -4.98 8 -6 8 C-6 6 -6 6 -3.5625 3.4375 C-2.716875 2.633125 -1.87125 1.82875 -1 1 C-0.67 0.67 -0.34 0.34 0 0 Z " fill="#5CD98B" transform="translate(598,199)"/>
<path d="M0 0 C1.32 0 2.64 0 4 0 C3.67 1.98 3.34 3.96 3 6 C1.68 5.67 0.36 5.34 -1 5 C-0.67 3.35 -0.34 1.7 0 0 Z " fill="#59DA80" transform="translate(803,195)"/>
<path d="M0 0 C1.32 0.66 2.64 1.32 4 2 C3.01 4.97 2.02 7.94 1 11 C0.16338569 7.65354275 -0.54457342 4.41569935 -1 1 C-0.67 0.67 -0.34 0.34 0 0 Z " fill="#56D889" transform="translate(748,160)"/>
<path d="M0 0 C1.65 0 3.3 0 5 0 C5.33 0.66 5.66 1.32 6 2 C5.67 2.66 5.34 3.32 5 4 C5.66 4.33 6.32 4.66 7 5 C6.01 5.33 5.02 5.66 4 6 C2.62437146 4.71034824 1.29233607 3.37310707 0 2 C0 1.34 0 0.68 0 0 Z " fill="#3EDE7A" transform="translate(589,197)"/>
<path d="M0 0 C1.32 0 2.64 0 4 0 C4 0.66 4 1.32 4 2 C3.34 2 2.68 2 2 2 C2.33 3.65 2.66 5.3 3 7 C2.01 7 1.02 7 0 7 C0 4.69 0 2.38 0 0 Z " fill="#3DE07E" transform="translate(812,190)"/>
<path d="M0 0 C2.73625437 1.47336774 3.38708421 2.44772966 4.4375 5.3125 C3.1175 4.6525 1.7975 3.9925 0.4375 3.3125 C0.4375 2.6525 0.4375 1.9925 0.4375 1.3125 C-2.2025 1.9725 -4.8425 2.6325 -7.5625 3.3125 C-5.2177432 -0.20463519 -4.1547065 -1.11467735 0 0 Z " fill="#72CE94" transform="translate(244.5625,156.6875)"/>
<path d="M0 0 C0.66 0.99 1.32 1.98 2 3 C0.75 4.5625 0.75 4.5625 -1 6 C-3.1875 5.6875 -3.1875 5.6875 -5 5 C-4.34 4.01 -3.68 3.02 -3 2 C-2.34 2.33 -1.68 2.66 -1 3 C-0.67 2.01 -0.34 1.02 0 0 Z " fill="#60DC8A" transform="translate(525,143)"/>
<path d="M0 0 C0.33 0 0.66 0 1 0 C1 2.97 1 5.94 1 9 C0.01 8.34 -0.98 7.68 -2 7 C-1.125 1.125 -1.125 1.125 0 0 Z " fill="#5FDC8B" transform="translate(563,192)"/>
<path d="M0 0 C0.66 0.33 1.32 0.66 2 1 C0.15794162 3.54379491 -1.72478134 5.83312509 -4 8 C-4.66 7.67 -5.32 7.34 -6 7 C-4.60667426 3.63279613 -3.0210714 2.0140476 0 0 Z " fill="#54DC84" transform="translate(568,173)"/>
<path d="M0 0 C0.66 0 1.32 0 2 0 C2.1875 2.875 2.1875 2.875 2 6 C1.01 6.66 0.02 7.32 -1 8 C-1.04241723 5.66705225 -1.04092937 3.33297433 -1 1 C-0.67 0.67 -0.34 0.34 0 0 Z " fill="#3EE079" transform="translate(457,118)"/>
<path d="M0 0 C-0.33 0.66 -0.66 1.32 -1 2 C-3.06640625 2.4140625 -3.06640625 2.4140625 -5.5625 2.625 C-6.38878906 2.69976562 -7.21507812 2.77453125 -8.06640625 2.8515625 C-9.02353516 2.92503906 -9.02353516 2.92503906 -10 3 C-10 2.34 -10 1.68 -10 1 C-3.375 -1.125 -3.375 -1.125 0 0 Z " fill="#56DB84" transform="translate(375,114)"/>
<path d="M0 0 C0.70125 0.495 1.4025 0.99 2.125 1.5 C5.37119719 3.1936681 7.39340156 3.25162315 11 3 C10.67 3.66 10.34 4.32 10 5 C3.51707705 5.3669579 3.51707705 5.3669579 1.0625 3.625 C0 2 0 2 0 0 Z " fill="#74D099" transform="translate(155,233)"/>
<path d="M0 0 C-1.625 1.125 -1.625 1.125 -4 2 C-7.25 1.125 -7.25 1.125 -10 0 C-10 -0.33 -10 -0.66 -10 -1 C-5.92224809 -1.9267618 -3.57818963 -2.33958553 0 0 Z " fill="#65DD87" transform="translate(498,236)"/>
<path d="M0 0 C1.32 0.33 2.64 0.66 4 1 C4.33 3.31 4.66 5.62 5 8 C4.34 8 3.68 8 3 8 C1.92474806 5.34771188 0.90543849 2.71631546 0 0 Z " fill="#3BDE7E" transform="translate(523,163)"/>
<path d="M0 0 C1.32 0.66 2.64 1.32 4 2 C2.824375 2.928125 2.824375 2.928125 1.625 3.875 C-0.96837647 5.89858661 -0.96837647 5.89858661 -3 8 C-3.33 6.35 -3.66 4.7 -4 3 C-2.68 3 -1.36 3 0 3 C0 2.01 0 1.02 0 0 Z " fill="#6DE29B" transform="translate(665,159)"/>
<path d="M0 0 C0.66 0 1.32 0 2 0 C1.40072174 3.35595828 0.15377564 5.37801226 -2 8 C-2.66 7.67 -3.32 7.34 -4 7 C-3.67 5.68 -3.34 4.36 -3 3 C-2.34 3 -1.68 3 -1 3 C-0.67 2.01 -0.34 1.02 0 0 Z " fill="#3CDD7E" transform="translate(342,133)"/>
<path d="M0 0 C0 0.99 0 1.98 0 3 C0.66 3 1.32 3 2 3 C2 3.66 2 4.32 2 5 C-3.75 3.25 -3.75 3.25 -6 1 C-3.92446352 0.4465236 -2.15634036 0 0 0 Z " fill="#67D98E" transform="translate(358,200)"/>
<path d="M0 0 C0.33 0.99 0.66 1.98 1 3 C0.01 3 -0.98 3 -2 3 C-2 3.66 -2 4.32 -2 5 C-3.65 5 -5.3 5 -7 5 C-4.63707344 2.47411298 -3.33537489 1.11179163 0 0 Z " fill="#3CE07A" transform="translate(687,187)"/>
<path d="M0 0 C0.99 0 1.98 0 3 0 C2.67 1.65 2.34 3.3 2 5 C1.01 5 0.02 5 -1 5 C-0.67 3.35 -0.34 1.7 0 0 Z " fill="#38E07E" transform="translate(791,173)"/>
<path d="M0 0 C0 0.66 0 1.32 0 2 C-5.75 1.25 -5.75 1.25 -8 -1 C-4.59745511 -2.2151946 -3.06748874 -1.86240388 0 0 Z " fill="#3BDF7E" transform="translate(602,155)"/>
<path d="M0 0 C1.4606285 2.64738916 2 3.89448334 2 7 C1.01 7.66 0.02 8.32 -1 9 C-1.625 6.1875 -1.625 6.1875 -2 3 C-1.34 2.01 -0.68 1.02 0 0 Z " fill="#5CE196" transform="translate(338,134)"/>
<path d="M0 0 C0.33 0.99 0.66 1.98 1 3 C0.01 4.485 0.01 4.485 -1 6 C-1.39013716 7.9896995 -1.73202649 9.99019869 -2 12 C-3.1875 10.4375 -3.1875 10.4375 -4 8 C-1.78947368 1.78947368 -1.78947368 1.78947368 0 0 Z " fill="#7BD5A0" transform="translate(853,113)"/>
<path d="M0 0 C2.97 0.495 2.97 0.495 6 1 C6 1.99 6 2.98 6 4 C4.35 4 2.7 4 1 4 C0.67 2.68 0.34 1.36 0 0 Z " fill="#38DF7F" transform="translate(238,232)"/>
<path d="M0 0 C0.66 0.66 1.32 1.32 2 2 C-4.75 6 -4.75 6 -7 6 C-6.67 5.01 -6.34 4.02 -6 3 C-3.5 1.875 -3.5 1.875 -1 1 C-0.67 0.67 -0.34 0.34 0 0 Z " fill="#6CDD94" transform="translate(813,201)"/>
<path d="M0 0 C0.33 1.32 0.66 2.64 1 4 C2.98 4.495 2.98 4.495 5 5 C4.67 5.66 4.34 6.32 4 7 C2.68 7 1.36 7 0 7 C0 4.69 0 2.38 0 0 Z " fill="#62DD84" transform="translate(396,181)"/>
<path d="M0 0 C0.33 0.66 0.66 1.32 1 2 C1.99 2.33 2.98 2.66 4 3 C3.34 3 2.68 3 2 3 C2 4.98 2 6.96 2 9 C1.67 7.68 1.34 6.36 1 5 C0.34 5 -0.32 5 -1 5 C-0.67 3.35 -0.34 1.7 0 0 Z " fill="#3FDD7A" transform="translate(707,177)"/>
<path d="M0 0 C0.33 0.66 0.66 1.32 1 2 C1.99 2.33 2.98 2.66 4 3 C3.34 3.66 2.68 4.32 2 5 C1.01 5 0.02 5 -1 5 C-1.33 3.68 -1.66 2.36 -2 1 C-1.34 0.67 -0.68 0.34 0 0 Z " fill="#58DC87" transform="translate(583,177)"/>
<path d="M0 0 C0 1.32 0 2.64 0 4 C-1.98 4 -3.96 4 -6 4 C-6 3.34 -6 2.68 -6 2 C-2.25 0 -2.25 0 0 0 Z " fill="#62D185" transform="translate(396,168)"/>
<path d="M0 0 C1.32 0 2.64 0 4 0 C4 1.32 4 2.64 4 4 C2.68 4 1.36 4 0 4 C-0.33 3.01 -0.66 2.02 -1 1 C-0.67 0.67 -0.34 0.34 0 0 Z " fill="#3AE07A" transform="translate(813,154)"/>
<path d="M0 0 C0 0.66 0 1.32 0 2 C-3.50776784 3.60355101 -6.14354879 4.22036864 -10 4 C-6.74659338 1.32755885 -4.23938937 0 0 0 Z " fill="#74D49A" transform="translate(369,113)"/>
</svg>
