<svg width="1500" height="1500" viewBox="0 0 1500 1500" fill="none" xmlns="http://www.w3.org/2000/svg">
<rect width="1500" height="1500" fill="#060707"/>
<path d="M509.292 1025.17V754.308C509.292 735.277 524.72 719.85 543.75 719.85C562.781 719.85 578.209 735.277 578.209 754.308V1025.17C578.209 1044.2 562.781 1059.62 543.75 1059.62C524.72 1059.62 509.292 1044.2 509.292 1025.17ZM716.042 1025.17V473.833C716.042 454.803 731.47 439.375 750.5 439.375C769.531 439.375 784.959 454.803 784.959 473.833V1025.17C784.959 1044.2 769.531 1059.62 750.5 1059.62C731.47 1059.62 716.042 1044.2 716.042 1025.17ZM922.792 1025.17V653.108C922.792 634.077 938.22 618.65 957.25 618.65C976.281 618.65 991.709 634.077 991.709 653.108V1025.17C991.709 1044.2 976.281 1059.62 957.25 1059.62C938.22 1059.62 922.792 1044.2 922.792 1025.17Z" fill="#32F98F"/>
</svg>
